<svg width="120" height="64" viewBox="0 0 120 64" fill="none" xmlns="http://www.w3.org/2000/svg">
<rect x="0.5" y="0.5" width="119" height="63" rx="4.5" fill="#065627"/>
<rect x="0.5" y="0.5" width="119" height="63" rx="4.5" stroke="#D9D9D9"/>
<mask id="path-2-outside-1_177_6012" maskUnits="userSpaceOnUse" x="57" y="13" width="60" height="37" fill="black">
<rect fill="white" x="57" y="13" width="60" height="37"/>
<path d="M71.9609 15.4922V20.0703H69.3906C69.3906 19.7214 69.3802 19.4193 69.3594 19.1641C69.3438 18.9036 69.3047 18.6953 69.2422 18.5391C69.1797 18.3776 69.0833 18.2604 68.9531 18.1875C68.8281 18.1094 68.6589 18.0703 68.4453 18.0703H67.9609V23.2266C67.9609 23.5651 68.0599 23.7969 68.2578 23.9219C68.4557 24.0417 68.7839 24.1016 69.2422 24.1016V27H62.0781V24.1016C62.5365 24.1016 62.862 24.0417 63.0547 23.9219C63.2526 23.7969 63.3516 23.5651 63.3516 23.2266V18.0703H62.875C62.6615 18.0703 62.4896 18.1094 62.3594 18.1875C62.2344 18.2604 62.138 18.3776 62.0703 18.5391C62.0078 18.6953 61.9688 18.9036 61.9531 19.1641C61.9375 19.4193 61.9297 19.7214 61.9297 20.0703H59.3516V15.4922H71.9609ZM72.5312 21.2578C72.5312 20.2526 72.6953 19.3724 73.0234 18.6172C73.3568 17.8568 73.8255 17.2214 74.4297 16.7109C75.0339 16.2005 75.75 15.8177 76.5781 15.5625C77.4115 15.3073 78.3307 15.1797 79.3359 15.1797C80.3359 15.1797 81.2526 15.3073 82.0859 15.5625C82.9193 15.8177 83.6354 16.2005 84.2344 16.7109C84.8385 17.2214 85.3047 17.8568 85.6328 18.6172C85.9661 19.3724 86.1328 20.2526 86.1328 21.2578C86.1328 22.2578 85.9661 23.138 85.6328 23.8984C85.3047 24.6536 84.8385 25.2891 84.2344 25.8047C83.6354 26.3151 82.9193 26.6979 82.0859 26.9531C81.2526 27.2083 80.3359 27.3359 79.3359 27.3359C78.3307 27.3359 77.4115 27.2083 76.5781 26.9531C75.75 26.6979 75.0339 26.3151 74.4297 25.8047C73.8255 25.2891 73.3568 24.6536 73.0234 23.8984C72.6953 23.138 72.5312 22.2578 72.5312 21.2578ZM77.7812 21.2578C77.7812 21.888 77.8047 22.4167 77.8516 22.8438C77.8984 23.2656 77.9792 23.6094 78.0938 23.875C78.2135 24.1354 78.3724 24.3255 78.5703 24.4453C78.7682 24.5599 79.0234 24.6172 79.3359 24.6172C79.6328 24.6172 79.8828 24.5599 80.0859 24.4453C80.2891 24.3255 80.4479 24.1354 80.5625 23.875C80.6823 23.6094 80.7656 23.2656 80.8125 22.8438C80.8594 22.4167 80.8828 21.888 80.8828 21.2578C80.8828 20.638 80.8594 20.112 80.8125 19.6797C80.7656 19.2474 80.6823 18.901 80.5625 18.6406C80.4479 18.3802 80.2891 18.1927 80.0859 18.0781C79.8828 17.9583 79.6328 17.8984 79.3359 17.8984C79.0234 17.8984 78.7682 17.9583 78.5703 18.0781C78.3724 18.1927 78.2135 18.3802 78.0938 18.6406C77.9792 18.901 77.8984 19.2474 77.8516 19.6797C77.8047 20.112 77.7812 20.638 77.7812 21.2578ZM93.4844 24.1016C93.7708 24.1016 94.0495 24.0703 94.3203 24.0078C94.5964 23.9453 94.8359 23.8151 95.0391 23.6172C95.2474 23.4193 95.4167 23.1354 95.5469 22.7656C95.6771 22.3906 95.7422 21.888 95.7422 21.2578C95.7422 20.638 95.6797 20.1406 95.5547 19.7656C95.4297 19.3854 95.2656 19.0938 95.0625 18.8906C94.8646 18.6875 94.625 18.5547 94.3438 18.4922C94.0677 18.4245 93.7812 18.3906 93.4844 18.3906H92.75V24.1016H93.4844ZM86.8594 27V24.1016C87.3177 24.1016 87.6458 24.0417 87.8438 23.9219C88.0417 23.7969 88.1406 23.5651 88.1406 23.2266V19.2734C88.1406 18.9297 88.0417 18.6979 87.8438 18.5781C87.6458 18.4531 87.3177 18.3906 86.8594 18.3906V15.4922H95.1484C95.8932 15.4922 96.6146 15.5911 97.3125 15.7891C98.0104 15.987 98.6302 16.3099 99.1719 16.7578C99.7188 17.2057 100.156 17.7995 100.484 18.5391C100.818 19.2734 100.984 20.1797 100.984 21.2578C100.984 22.3359 100.82 23.2422 100.492 23.9766C100.169 24.7109 99.7266 25.3021 99.1641 25.75C98.6068 26.1979 97.9531 26.5208 97.2031 26.7188C96.4531 26.9167 95.6562 27.0156 94.8125 27.0156L86.8594 27ZM101.797 21.2578C101.797 20.2526 101.961 19.3724 102.289 18.6172C102.622 17.8568 103.091 17.2214 103.695 16.7109C104.299 16.2005 105.016 15.8177 105.844 15.5625C106.677 15.3073 107.596 15.1797 108.602 15.1797C109.602 15.1797 110.518 15.3073 111.352 15.5625C112.185 15.8177 112.901 16.2005 113.5 16.7109C114.104 17.2214 114.57 17.8568 114.898 18.6172C115.232 19.3724 115.398 20.2526 115.398 21.2578C115.398 22.2578 115.232 23.138 114.898 23.8984C114.57 24.6536 114.104 25.2891 113.5 25.8047C112.901 26.3151 112.185 26.6979 111.352 26.9531C110.518 27.2083 109.602 27.3359 108.602 27.3359C107.596 27.3359 106.677 27.2083 105.844 26.9531C105.016 26.6979 104.299 26.3151 103.695 25.8047C103.091 25.2891 102.622 24.6536 102.289 23.8984C101.961 23.138 101.797 22.2578 101.797 21.2578ZM107.047 21.2578C107.047 21.888 107.07 22.4167 107.117 22.8438C107.164 23.2656 107.245 23.6094 107.359 23.875C107.479 24.1354 107.638 24.3255 107.836 24.4453C108.034 24.5599 108.289 24.6172 108.602 24.6172C108.898 24.6172 109.148 24.5599 109.352 24.4453C109.555 24.3255 109.714 24.1354 109.828 23.875C109.948 23.6094 110.031 23.2656 110.078 22.8438C110.125 22.4167 110.148 21.888 110.148 21.2578C110.148 20.638 110.125 20.112 110.078 19.6797C110.031 19.2474 109.948 18.901 109.828 18.6406C109.714 18.3802 109.555 18.1927 109.352 18.0781C109.148 17.9583 108.898 17.8984 108.602 17.8984C108.289 17.8984 108.034 17.9583 107.836 18.0781C107.638 18.1927 107.479 18.3802 107.359 18.6406C107.245 18.901 107.164 19.2474 107.117 19.6797C107.07 20.112 107.047 20.638 107.047 21.2578ZM72.7656 39.3906C72.3073 39.3906 71.9792 39.4531 71.7812 39.5781C71.5885 39.6979 71.4922 39.9297 71.4922 40.2734V45.1016H73.0547C73.2682 45.1016 73.4479 45.0807 73.5938 45.0391C73.7396 44.9974 73.8542 44.9115 73.9375 44.7812C74.0208 44.6458 74.0781 44.4583 74.1094 44.2188C74.1458 43.9792 74.1641 43.6615 74.1641 43.2656H76.8984V48H65.6016V45.1016C66.0599 45.1016 66.388 45.0417 66.5859 44.9219C66.7839 44.7969 66.8828 44.5651 66.8828 44.2266V40.2734C66.8828 39.9297 66.7839 39.6979 66.5859 39.5781C66.388 39.4531 66.0599 39.3906 65.6016 39.3906V36.4922H72.7656V39.3906ZM77.5391 48V45.1016C77.9974 45.1016 78.3255 45.0417 78.5234 44.9219C78.7214 44.7969 78.8203 44.5651 78.8203 44.2266V40.2734C78.8203 39.9297 78.7214 39.6979 78.5234 39.5781C78.3255 39.4531 77.9974 39.3906 77.5391 39.3906V36.4922H84.7031V39.3906C84.2448 39.3906 83.9167 39.4531 83.7188 39.5781C83.526 39.6979 83.4297 39.9297 83.4297 40.2734V44.2266C83.4297 44.5651 83.526 44.7969 83.7188 44.9219C83.9167 45.0417 84.2448 45.1016 84.7031 45.1016V48H77.5391ZM96.0078 40.6719H93.4297C93.388 40.4062 93.2943 40.1589 93.1484 39.9297C93.0078 39.7005 92.8333 39.5026 92.625 39.3359C92.4167 39.1693 92.1849 39.0417 91.9297 38.9531C91.6745 38.8594 91.4115 38.8125 91.1406 38.8125C90.8125 38.8125 90.5469 38.875 90.3438 39C90.1406 39.125 90.0391 39.2995 90.0391 39.5234C90.0391 39.737 90.1302 39.9115 90.3125 40.0469C90.4948 40.1771 90.7344 40.2917 91.0312 40.3906C91.3281 40.4844 91.6667 40.5755 92.0469 40.6641C92.4271 40.7526 92.8125 40.862 93.2031 40.9922C93.599 41.1224 93.987 41.2812 94.3672 41.4688C94.7474 41.651 95.0859 41.888 95.3828 42.1797C95.6797 42.4661 95.9193 42.8177 96.1016 43.2344C96.2839 43.651 96.375 44.151 96.375 44.7344C96.375 45.3542 96.2422 45.8828 95.9766 46.3203C95.7109 46.7578 95.3542 47.1172 94.9062 47.3984C94.4583 47.6797 93.9427 47.8854 93.3594 48.0156C92.776 48.1458 92.1719 48.2109 91.5469 48.2109C90.9375 48.2109 90.3542 48.1406 89.7969 48C89.2448 47.8594 88.6797 47.6302 88.1016 47.3125V48H85.5234V43.7422H88.1016C88.2526 44.3516 88.5547 44.8333 89.0078 45.1875C89.4609 45.5365 89.9714 45.7109 90.5391 45.7109C90.9193 45.7109 91.2031 45.6406 91.3906 45.5C91.5781 45.3542 91.6719 45.1901 91.6719 45.0078C91.6719 44.7214 91.5156 44.5 91.2031 44.3438C90.8958 44.1875 90.513 44.0495 90.0547 43.9297C89.5964 43.8047 89.0938 43.6667 88.5469 43.5156C88.0052 43.3594 87.5052 43.138 87.0469 42.8516C86.5885 42.5599 86.2031 42.1771 85.8906 41.7031C85.5833 41.2292 85.4297 40.6094 85.4297 39.8438C85.4297 39.276 85.5521 38.7734 85.7969 38.3359C86.0417 37.8984 86.3698 37.5312 86.7812 37.2344C87.1927 36.9323 87.6667 36.7057 88.2031 36.5547C88.7448 36.3984 89.3151 36.3203 89.9141 36.3203C90.7422 36.3203 91.4531 36.4167 92.0469 36.6094C92.6406 36.8021 93.1016 37.0052 93.4297 37.2188V36.4922H96.0078V40.6719ZM109.547 36.4922V41.0703H106.977C106.977 40.7214 106.966 40.4193 106.945 40.1641C106.93 39.9036 106.891 39.6953 106.828 39.5391C106.766 39.3776 106.669 39.2604 106.539 39.1875C106.414 39.1094 106.245 39.0703 106.031 39.0703H105.547V44.2266C105.547 44.5651 105.646 44.7969 105.844 44.9219C106.042 45.0417 106.37 45.1016 106.828 45.1016V48H99.6641V45.1016C100.122 45.1016 100.448 45.0417 100.641 44.9219C100.839 44.7969 100.938 44.5651 100.938 44.2266V39.0703H100.461C100.247 39.0703 100.076 39.1094 99.9453 39.1875C99.8203 39.2604 99.724 39.3776 99.6562 39.5391C99.5938 39.6953 99.5547 39.9036 99.5391 40.1641C99.5234 40.4193 99.5156 40.7214 99.5156 41.0703H96.9375V36.4922H109.547Z"/>
</mask>
<path d="M71.9609 15.4922V20.0703H69.3906C69.3906 19.7214 69.3802 19.4193 69.3594 19.1641C69.3438 18.9036 69.3047 18.6953 69.2422 18.5391C69.1797 18.3776 69.0833 18.2604 68.9531 18.1875C68.8281 18.1094 68.6589 18.0703 68.4453 18.0703H67.9609V23.2266C67.9609 23.5651 68.0599 23.7969 68.2578 23.9219C68.4557 24.0417 68.7839 24.1016 69.2422 24.1016V27H62.0781V24.1016C62.5365 24.1016 62.862 24.0417 63.0547 23.9219C63.2526 23.7969 63.3516 23.5651 63.3516 23.2266V18.0703H62.875C62.6615 18.0703 62.4896 18.1094 62.3594 18.1875C62.2344 18.2604 62.138 18.3776 62.0703 18.5391C62.0078 18.6953 61.9688 18.9036 61.9531 19.1641C61.9375 19.4193 61.9297 19.7214 61.9297 20.0703H59.3516V15.4922H71.9609ZM72.5312 21.2578C72.5312 20.2526 72.6953 19.3724 73.0234 18.6172C73.3568 17.8568 73.8255 17.2214 74.4297 16.7109C75.0339 16.2005 75.75 15.8177 76.5781 15.5625C77.4115 15.3073 78.3307 15.1797 79.3359 15.1797C80.3359 15.1797 81.2526 15.3073 82.0859 15.5625C82.9193 15.8177 83.6354 16.2005 84.2344 16.7109C84.8385 17.2214 85.3047 17.8568 85.6328 18.6172C85.9661 19.3724 86.1328 20.2526 86.1328 21.2578C86.1328 22.2578 85.9661 23.138 85.6328 23.8984C85.3047 24.6536 84.8385 25.2891 84.2344 25.8047C83.6354 26.3151 82.9193 26.6979 82.0859 26.9531C81.2526 27.2083 80.3359 27.3359 79.3359 27.3359C78.3307 27.3359 77.4115 27.2083 76.5781 26.9531C75.75 26.6979 75.0339 26.3151 74.4297 25.8047C73.8255 25.2891 73.3568 24.6536 73.0234 23.8984C72.6953 23.138 72.5312 22.2578 72.5312 21.2578ZM77.7812 21.2578C77.7812 21.888 77.8047 22.4167 77.8516 22.8438C77.8984 23.2656 77.9792 23.6094 78.0938 23.875C78.2135 24.1354 78.3724 24.3255 78.5703 24.4453C78.7682 24.5599 79.0234 24.6172 79.3359 24.6172C79.6328 24.6172 79.8828 24.5599 80.0859 24.4453C80.2891 24.3255 80.4479 24.1354 80.5625 23.875C80.6823 23.6094 80.7656 23.2656 80.8125 22.8438C80.8594 22.4167 80.8828 21.888 80.8828 21.2578C80.8828 20.638 80.8594 20.112 80.8125 19.6797C80.7656 19.2474 80.6823 18.901 80.5625 18.6406C80.4479 18.3802 80.2891 18.1927 80.0859 18.0781C79.8828 17.9583 79.6328 17.8984 79.3359 17.8984C79.0234 17.8984 78.7682 17.9583 78.5703 18.0781C78.3724 18.1927 78.2135 18.3802 78.0938 18.6406C77.9792 18.901 77.8984 19.2474 77.8516 19.6797C77.8047 20.112 77.7812 20.638 77.7812 21.2578ZM93.4844 24.1016C93.7708 24.1016 94.0495 24.0703 94.3203 24.0078C94.5964 23.9453 94.8359 23.8151 95.0391 23.6172C95.2474 23.4193 95.4167 23.1354 95.5469 22.7656C95.6771 22.3906 95.7422 21.888 95.7422 21.2578C95.7422 20.638 95.6797 20.1406 95.5547 19.7656C95.4297 19.3854 95.2656 19.0938 95.0625 18.8906C94.8646 18.6875 94.625 18.5547 94.3438 18.4922C94.0677 18.4245 93.7812 18.3906 93.4844 18.3906H92.75V24.1016H93.4844ZM86.8594 27V24.1016C87.3177 24.1016 87.6458 24.0417 87.8438 23.9219C88.0417 23.7969 88.1406 23.5651 88.1406 23.2266V19.2734C88.1406 18.9297 88.0417 18.6979 87.8438 18.5781C87.6458 18.4531 87.3177 18.3906 86.8594 18.3906V15.4922H95.1484C95.8932 15.4922 96.6146 15.5911 97.3125 15.7891C98.0104 15.987 98.6302 16.3099 99.1719 16.7578C99.7188 17.2057 100.156 17.7995 100.484 18.5391C100.818 19.2734 100.984 20.1797 100.984 21.2578C100.984 22.3359 100.82 23.2422 100.492 23.9766C100.169 24.7109 99.7266 25.3021 99.1641 25.75C98.6068 26.1979 97.9531 26.5208 97.2031 26.7188C96.4531 26.9167 95.6562 27.0156 94.8125 27.0156L86.8594 27ZM101.797 21.2578C101.797 20.2526 101.961 19.3724 102.289 18.6172C102.622 17.8568 103.091 17.2214 103.695 16.7109C104.299 16.2005 105.016 15.8177 105.844 15.5625C106.677 15.3073 107.596 15.1797 108.602 15.1797C109.602 15.1797 110.518 15.3073 111.352 15.5625C112.185 15.8177 112.901 16.2005 113.5 16.7109C114.104 17.2214 114.57 17.8568 114.898 18.6172C115.232 19.3724 115.398 20.2526 115.398 21.2578C115.398 22.2578 115.232 23.138 114.898 23.8984C114.57 24.6536 114.104 25.2891 113.5 25.8047C112.901 26.3151 112.185 26.6979 111.352 26.9531C110.518 27.2083 109.602 27.3359 108.602 27.3359C107.596 27.3359 106.677 27.2083 105.844 26.9531C105.016 26.6979 104.299 26.3151 103.695 25.8047C103.091 25.2891 102.622 24.6536 102.289 23.8984C101.961 23.138 101.797 22.2578 101.797 21.2578ZM107.047 21.2578C107.047 21.888 107.07 22.4167 107.117 22.8438C107.164 23.2656 107.245 23.6094 107.359 23.875C107.479 24.1354 107.638 24.3255 107.836 24.4453C108.034 24.5599 108.289 24.6172 108.602 24.6172C108.898 24.6172 109.148 24.5599 109.352 24.4453C109.555 24.3255 109.714 24.1354 109.828 23.875C109.948 23.6094 110.031 23.2656 110.078 22.8438C110.125 22.4167 110.148 21.888 110.148 21.2578C110.148 20.638 110.125 20.112 110.078 19.6797C110.031 19.2474 109.948 18.901 109.828 18.6406C109.714 18.3802 109.555 18.1927 109.352 18.0781C109.148 17.9583 108.898 17.8984 108.602 17.8984C108.289 17.8984 108.034 17.9583 107.836 18.0781C107.638 18.1927 107.479 18.3802 107.359 18.6406C107.245 18.901 107.164 19.2474 107.117 19.6797C107.07 20.112 107.047 20.638 107.047 21.2578ZM72.7656 39.3906C72.3073 39.3906 71.9792 39.4531 71.7812 39.5781C71.5885 39.6979 71.4922 39.9297 71.4922 40.2734V45.1016H73.0547C73.2682 45.1016 73.4479 45.0807 73.5938 45.0391C73.7396 44.9974 73.8542 44.9115 73.9375 44.7812C74.0208 44.6458 74.0781 44.4583 74.1094 44.2188C74.1458 43.9792 74.1641 43.6615 74.1641 43.2656H76.8984V48H65.6016V45.1016C66.0599 45.1016 66.388 45.0417 66.5859 44.9219C66.7839 44.7969 66.8828 44.5651 66.8828 44.2266V40.2734C66.8828 39.9297 66.7839 39.6979 66.5859 39.5781C66.388 39.4531 66.0599 39.3906 65.6016 39.3906V36.4922H72.7656V39.3906ZM77.5391 48V45.1016C77.9974 45.1016 78.3255 45.0417 78.5234 44.9219C78.7214 44.7969 78.8203 44.5651 78.8203 44.2266V40.2734C78.8203 39.9297 78.7214 39.6979 78.5234 39.5781C78.3255 39.4531 77.9974 39.3906 77.5391 39.3906V36.4922H84.7031V39.3906C84.2448 39.3906 83.9167 39.4531 83.7188 39.5781C83.526 39.6979 83.4297 39.9297 83.4297 40.2734V44.2266C83.4297 44.5651 83.526 44.7969 83.7188 44.9219C83.9167 45.0417 84.2448 45.1016 84.7031 45.1016V48H77.5391ZM96.0078 40.6719H93.4297C93.388 40.4062 93.2943 40.1589 93.1484 39.9297C93.0078 39.7005 92.8333 39.5026 92.625 39.3359C92.4167 39.1693 92.1849 39.0417 91.9297 38.9531C91.6745 38.8594 91.4115 38.8125 91.1406 38.8125C90.8125 38.8125 90.5469 38.875 90.3438 39C90.1406 39.125 90.0391 39.2995 90.0391 39.5234C90.0391 39.737 90.1302 39.9115 90.3125 40.0469C90.4948 40.1771 90.7344 40.2917 91.0312 40.3906C91.3281 40.4844 91.6667 40.5755 92.0469 40.6641C92.4271 40.7526 92.8125 40.862 93.2031 40.9922C93.599 41.1224 93.987 41.2812 94.3672 41.4688C94.7474 41.651 95.0859 41.888 95.3828 42.1797C95.6797 42.4661 95.9193 42.8177 96.1016 43.2344C96.2839 43.651 96.375 44.151 96.375 44.7344C96.375 45.3542 96.2422 45.8828 95.9766 46.3203C95.7109 46.7578 95.3542 47.1172 94.9062 47.3984C94.4583 47.6797 93.9427 47.8854 93.3594 48.0156C92.776 48.1458 92.1719 48.2109 91.5469 48.2109C90.9375 48.2109 90.3542 48.1406 89.7969 48C89.2448 47.8594 88.6797 47.6302 88.1016 47.3125V48H85.5234V43.7422H88.1016C88.2526 44.3516 88.5547 44.8333 89.0078 45.1875C89.4609 45.5365 89.9714 45.7109 90.5391 45.7109C90.9193 45.7109 91.2031 45.6406 91.3906 45.5C91.5781 45.3542 91.6719 45.1901 91.6719 45.0078C91.6719 44.7214 91.5156 44.5 91.2031 44.3438C90.8958 44.1875 90.513 44.0495 90.0547 43.9297C89.5964 43.8047 89.0938 43.6667 88.5469 43.5156C88.0052 43.3594 87.5052 43.138 87.0469 42.8516C86.5885 42.5599 86.2031 42.1771 85.8906 41.7031C85.5833 41.2292 85.4297 40.6094 85.4297 39.8438C85.4297 39.276 85.5521 38.7734 85.7969 38.3359C86.0417 37.8984 86.3698 37.5312 86.7812 37.2344C87.1927 36.9323 87.6667 36.7057 88.2031 36.5547C88.7448 36.3984 89.3151 36.3203 89.9141 36.3203C90.7422 36.3203 91.4531 36.4167 92.0469 36.6094C92.6406 36.8021 93.1016 37.0052 93.4297 37.2188V36.4922H96.0078V40.6719ZM109.547 36.4922V41.0703H106.977C106.977 40.7214 106.966 40.4193 106.945 40.1641C106.93 39.9036 106.891 39.6953 106.828 39.5391C106.766 39.3776 106.669 39.2604 106.539 39.1875C106.414 39.1094 106.245 39.0703 106.031 39.0703H105.547V44.2266C105.547 44.5651 105.646 44.7969 105.844 44.9219C106.042 45.0417 106.37 45.1016 106.828 45.1016V48H99.6641V45.1016C100.122 45.1016 100.448 45.0417 100.641 44.9219C100.839 44.7969 100.938 44.5651 100.938 44.2266V39.0703H100.461C100.247 39.0703 100.076 39.1094 99.9453 39.1875C99.8203 39.2604 99.724 39.3776 99.6562 39.5391C99.5938 39.6953 99.5547 39.9036 99.5391 40.1641C99.5234 40.4193 99.5156 40.7214 99.5156 41.0703H96.9375V36.4922H109.547Z" fill="#300A65"/>
<path d="M71.9609 15.4922H73.4609V13.9922H71.9609V15.4922ZM71.9609 20.0703V21.5703H73.4609V20.0703H71.9609ZM69.3906 20.0703H67.8906V21.5703H69.3906V20.0703ZM69.3594 19.1641L67.8621 19.2539L67.863 19.27L67.8643 19.2861L69.3594 19.1641ZM69.2422 18.5391L67.8433 19.0806L67.8464 19.0884L67.8495 19.0961L69.2422 18.5391ZM68.9531 18.1875L68.1581 19.4595L68.1887 19.4786L68.2202 19.4963L68.9531 18.1875ZM67.9609 18.0703V16.5703H66.4609V18.0703H67.9609ZM68.2578 23.9219L67.4568 25.1901L67.4689 25.1977L67.4811 25.2051L68.2578 23.9219ZM69.2422 24.1016H70.7422V22.6016H69.2422V24.1016ZM69.2422 27V28.5H70.7422V27H69.2422ZM62.0781 27H60.5781V28.5H62.0781V27ZM62.0781 24.1016V22.6016H60.5781V24.1016H62.0781ZM63.0547 23.9219L63.8466 25.1958L63.8557 25.1901L63.0547 23.9219ZM63.3516 18.0703H64.8516V16.5703H63.3516V18.0703ZM62.3594 18.1875L63.1152 19.4832L63.1232 19.4785L63.1311 19.4737L62.3594 18.1875ZM62.0703 18.5391L60.687 17.959L60.6822 17.9704L60.6776 17.982L62.0703 18.5391ZM61.9531 19.1641L63.4503 19.2557L63.4504 19.2539L61.9531 19.1641ZM61.9297 20.0703V21.5703H63.4297V20.0703H61.9297ZM59.3516 20.0703H57.8516V21.5703H59.3516V20.0703ZM59.3516 15.4922V13.9922H57.8516V15.4922H59.3516ZM71.9609 15.4922H70.4609V20.0703H71.9609H73.4609V15.4922H71.9609ZM71.9609 20.0703V18.5703H69.3906V20.0703V21.5703H71.9609V20.0703ZM69.3906 20.0703H70.8906C70.8906 19.6941 70.8795 19.3493 70.8544 19.042L69.3594 19.1641L67.8643 19.2861C67.8809 19.4892 67.8906 19.7486 67.8906 20.0703H69.3906ZM69.3594 19.1641L70.8567 19.0742C70.8361 18.7316 70.7805 18.3459 70.6349 17.982L69.2422 18.5391L67.8495 19.0961C67.8365 19.0638 67.8381 19.0573 67.8441 19.0889C67.8497 19.1193 67.8572 19.1726 67.8621 19.2539L69.3594 19.1641ZM69.2422 18.5391L70.641 17.9976C70.4738 17.5655 70.1683 17.1488 69.686 16.8787L68.9531 18.1875L68.2202 19.4963C68.1198 19.44 68.0327 19.3658 67.9644 19.2827C67.8979 19.2019 67.8617 19.1281 67.8433 19.0806L69.2422 18.5391ZM68.9531 18.1875L69.7481 16.9155C69.3006 16.6358 68.8208 16.5703 68.4453 16.5703V18.0703V19.5703C68.4633 19.5703 68.4429 19.5722 68.3951 19.5612C68.346 19.5498 68.2593 19.5227 68.1581 19.4595L68.9531 18.1875ZM68.4453 18.0703V16.5703H67.9609V18.0703V19.5703H68.4453V18.0703ZM67.9609 18.0703H66.4609V23.2266H67.9609H69.4609V18.0703H67.9609ZM67.9609 23.2266H66.4609C66.4609 23.8305 66.6482 24.6794 67.4568 25.1901L68.2578 23.9219L69.0588 22.6536C69.2371 22.7662 69.3543 22.9239 69.4147 23.0653C69.4669 23.1877 69.4609 23.259 69.4609 23.2266H67.9609ZM68.2578 23.9219L67.4811 25.2051C68.0491 25.5489 68.7311 25.6016 69.2422 25.6016V24.1016V22.6016C69.0725 22.6016 68.9709 22.59 68.9217 22.581C68.8988 22.5768 68.8987 22.5753 68.9155 22.581C68.932 22.5866 68.9757 22.603 69.0345 22.6386L68.2578 23.9219ZM69.2422 24.1016H67.7422V27H69.2422H70.7422V24.1016H69.2422ZM69.2422 27V25.5H62.0781V27V28.5H69.2422V27ZM62.0781 27H63.5781V24.1016H62.0781H60.5781V27H62.0781ZM62.0781 24.1016V25.6016C62.5831 25.6016 63.2752 25.551 63.8466 25.1958L63.0547 23.9219L62.2628 22.6479C62.3263 22.6085 62.3745 22.59 62.3939 22.5833C62.4137 22.5764 62.416 22.5775 62.3946 22.5814C62.3481 22.59 62.2482 22.6016 62.0781 22.6016V24.1016ZM63.0547 23.9219L63.8557 25.1901C64.6643 24.6794 64.8516 23.8305 64.8516 23.2266H63.3516H61.8516C61.8516 23.259 61.8456 23.1877 61.8978 23.0653C61.9582 22.9239 62.0754 22.7662 62.2537 22.6536L63.0547 23.9219ZM63.3516 23.2266H64.8516V18.0703H63.3516H61.8516V23.2266H63.3516ZM63.3516 18.0703V16.5703H62.875V18.0703V19.5703H63.3516V18.0703ZM62.875 18.0703V16.5703C62.4947 16.5703 62.0271 16.6376 61.5876 16.9013L62.3594 18.1875L63.1311 19.4737C62.9521 19.5812 62.8282 19.5703 62.875 19.5703V18.0703ZM62.3594 18.1875L61.6036 16.8918C61.1422 17.161 60.8535 17.5619 60.687 17.959L62.0703 18.5391L63.4536 19.1192C63.4225 19.1933 63.3266 19.3599 63.1152 19.4832L62.3594 18.1875ZM62.0703 18.5391L60.6776 17.982C60.532 18.3459 60.4764 18.7316 60.4558 19.0742L61.9531 19.1641L63.4504 19.2539C63.4553 19.1726 63.4628 19.1193 63.4684 19.0889C63.4744 19.0573 63.476 19.0638 63.463 19.0961L62.0703 18.5391ZM61.9531 19.1641L60.4559 19.0724C60.4379 19.3668 60.4297 19.7009 60.4297 20.0703H61.9297H63.4297C63.4297 19.7418 63.4371 19.4717 63.4503 19.2557L61.9531 19.1641ZM61.9297 20.0703V18.5703H59.3516V20.0703V21.5703H61.9297V20.0703ZM59.3516 20.0703H60.8516V15.4922H59.3516H57.8516V20.0703H59.3516ZM59.3516 15.4922V16.9922H71.9609V15.4922V13.9922H59.3516V15.4922ZM73.0234 18.6172L71.6496 18.015L71.6477 18.0194L73.0234 18.6172ZM76.5781 15.5625L76.1389 14.1282L76.1364 14.129L76.5781 15.5625ZM84.2344 16.7109L83.2615 17.8526L83.2663 17.8568L84.2344 16.7109ZM85.6328 18.6172L84.2555 19.2115L84.2605 19.2229L85.6328 18.6172ZM85.6328 23.8984L84.259 23.2962L84.2571 23.3007L85.6328 23.8984ZM84.2344 25.8047L85.2073 26.9464L85.2081 26.9457L84.2344 25.8047ZM76.5781 26.9531L76.1364 28.3866L76.1389 28.3874L76.5781 26.9531ZM74.4297 25.8047L73.4559 26.9457L73.4617 26.9505L74.4297 25.8047ZM73.0234 23.8984L71.6461 24.4928L71.6512 24.5041L73.0234 23.8984ZM77.8516 22.8438L76.3605 23.0074L76.3607 23.0094L77.8516 22.8438ZM78.0938 23.875L76.7164 24.4691L76.7235 24.4856L76.731 24.5019L78.0938 23.875ZM78.5703 24.4453L77.7936 25.7286L77.8061 25.7361L77.8188 25.7435L78.5703 24.4453ZM80.0859 24.4453L80.8229 25.7518L80.8355 25.7447L80.8479 25.7374L80.0859 24.4453ZM80.5625 23.875L79.1951 23.2583L79.1895 23.2709L80.5625 23.875ZM80.8125 22.8438L82.3033 23.0094L82.3035 23.0074L80.8125 22.8438ZM80.5625 18.6406L79.1895 19.2447L79.1946 19.2562L79.1998 19.2675L80.5625 18.6406ZM80.0859 18.0781L79.324 19.3702L79.3364 19.3775L79.349 19.3846L80.0859 18.0781ZM78.5703 18.0781L79.3219 19.3763L79.3345 19.3689L79.347 19.3614L78.5703 18.0781ZM78.0938 18.6406L76.731 18.0138L76.7258 18.0251L76.7208 18.0365L78.0938 18.6406ZM72.5312 21.2578H74.0312C74.0312 20.414 74.169 19.7447 74.3992 19.2149L73.0234 18.6172L71.6477 18.0194C71.2216 19.0001 71.0312 20.0912 71.0312 21.2578H72.5312ZM73.0234 18.6172L74.3972 19.2194C74.6433 18.6581 74.9773 18.212 75.3977 17.8568L74.4297 16.7109L73.4617 15.5651C72.6738 16.2307 72.0702 17.0555 71.6496 18.015L73.0234 18.6172ZM74.4297 16.7109L75.3977 17.8568C75.8334 17.4887 76.3662 17.1974 77.0199 16.996L76.5781 15.5625L76.1364 14.129C75.1338 14.438 74.2343 14.9124 73.4617 15.5651L74.4297 16.7109ZM76.5781 15.5625L77.0174 16.9967C77.6885 16.7912 78.4573 16.6797 79.3359 16.6797V15.1797V13.6797C78.2042 13.6797 77.1344 13.8234 76.1389 14.1283L76.5781 15.5625ZM79.3359 15.1797V16.6797C80.2086 16.6797 80.9749 16.791 81.6467 16.9967L82.0859 15.5625L82.5252 14.1283C81.5303 13.8236 80.4633 13.6797 79.3359 13.6797V15.1797ZM82.0859 15.5625L81.6467 16.9967C82.3052 17.1984 82.8345 17.4888 83.2615 17.8526L84.2344 16.7109L85.2073 15.5693C84.4363 14.9122 83.5334 14.437 82.5252 14.1283L82.0859 15.5625ZM84.2344 16.7109L83.2663 17.8568C83.6849 18.2104 84.0149 18.6538 84.2556 19.2115L85.6328 18.6172L87.0101 18.0229C86.5945 17.0598 85.9922 16.2323 85.2024 15.5651L84.2344 16.7109ZM85.6328 18.6172L84.2605 19.2229C84.4934 19.7505 84.6328 20.4168 84.6328 21.2578H86.1328H87.6328C87.6328 20.0884 87.4389 18.9943 87.0051 18.0115L85.6328 18.6172ZM86.1328 21.2578H84.6328C84.6328 22.0921 84.4939 22.7603 84.259 23.2962L85.6328 23.8984L87.0066 24.5007C87.4384 23.5157 87.6328 22.4236 87.6328 21.2578H86.1328ZM85.6328 23.8984L84.2571 23.3007C84.0164 23.8545 83.6848 24.3017 83.2606 24.6637L84.2344 25.8047L85.2081 26.9457C85.9923 26.2764 86.5929 25.4528 87.0086 24.4962L85.6328 23.8984ZM84.2344 25.8047L83.2615 24.663C82.8345 25.0268 82.3052 25.3172 81.6467 25.5189L82.0859 26.9531L82.5252 28.3874C83.5334 28.0786 84.4363 27.6034 85.2073 26.9464L84.2344 25.8047ZM82.0859 26.9531L81.6467 25.5189C80.9749 25.7246 80.2086 25.8359 79.3359 25.8359V27.3359V28.8359C80.4633 28.8359 81.5303 28.692 82.5252 28.3874L82.0859 26.9531ZM79.3359 27.3359V25.8359C78.4573 25.8359 77.6885 25.7244 77.0174 25.5189L76.5781 26.9531L76.1389 28.3874C77.1344 28.6923 78.2042 28.8359 79.3359 28.8359V27.3359ZM76.5781 26.9531L77.0199 25.5197C76.3662 25.3182 75.8334 25.027 75.3977 24.6589L74.4297 25.8047L73.4617 26.9505C74.2343 27.6032 75.1338 28.0776 76.1364 28.3866L76.5781 26.9531ZM74.4297 25.8047L75.4034 24.6637C74.9774 24.3001 74.6418 23.8502 74.3957 23.2927L73.0234 23.8984L71.6512 24.5041C72.0718 25.4571 72.6736 26.278 73.4559 26.9457L74.4297 25.8047ZM73.0234 23.8984L74.4007 23.3041C74.1685 22.7661 74.0312 22.0949 74.0312 21.2578H72.5312H71.0312C71.0312 22.4207 71.2221 23.51 71.6462 24.4927L73.0234 23.8984ZM77.7812 21.2578H76.2812C76.2812 21.92 76.3056 22.5073 76.3605 23.0074L77.8516 22.8438L79.3426 22.6801C79.3037 22.326 79.2812 21.856 79.2812 21.2578H77.7812ZM77.8516 22.8438L76.3607 23.0094C76.4171 23.5167 76.5225 24.0195 76.7164 24.4691L78.0938 23.875L79.4711 23.2809C79.4358 23.1992 79.3798 23.0145 79.3424 22.6781L77.8516 22.8438ZM78.0938 23.875L76.731 24.5019C76.946 24.9692 77.2837 25.4199 77.7936 25.7286L78.5703 24.4453L79.347 23.1621C79.3994 23.1938 79.4346 23.2281 79.4538 23.2511C79.4715 23.2723 79.4694 23.2763 79.4565 23.2481L78.0938 23.875ZM78.5703 24.4453L77.8188 25.7435C78.3138 26.03 78.8522 26.1172 79.3359 26.1172V24.6172V23.1172C79.3034 23.1172 79.2794 23.1157 79.2629 23.114C79.2548 23.1132 79.2487 23.1124 79.2447 23.1117C79.2427 23.1114 79.2412 23.1111 79.2402 23.1109C79.2392 23.1108 79.2387 23.1106 79.2387 23.1106C79.2387 23.1106 79.2717 23.1181 79.3219 23.1472L78.5703 24.4453ZM79.3359 24.6172V26.1172C79.8219 26.1172 80.3415 26.0233 80.8229 25.7518L80.0859 24.4453L79.349 23.1388C79.3665 23.1289 79.3816 23.1223 79.3928 23.118C79.404 23.1138 79.4105 23.1122 79.411 23.1121C79.4115 23.112 79.3888 23.1172 79.3359 23.1172V24.6172ZM80.0859 24.4453L80.8479 25.7374C81.3737 25.4273 81.721 24.9665 81.9355 24.4791L80.5625 23.875L79.1895 23.2709C79.1808 23.2907 79.1831 23.2789 79.2064 23.2511C79.2312 23.2213 79.2706 23.1847 79.324 23.1533L80.0859 24.4453ZM80.5625 23.875L81.9299 24.4917C82.1363 24.034 82.2463 23.5226 82.3033 23.0094L80.8125 22.8438L79.3217 22.6781C79.285 23.0086 79.2283 23.1848 79.1951 23.2583L80.5625 23.875ZM80.8125 22.8438L82.3035 23.0074C82.3584 22.5073 82.3828 21.92 82.3828 21.2578H80.8828H79.3828C79.3828 21.856 79.3603 22.326 79.3215 22.6801L80.8125 22.8438ZM80.8828 21.2578H82.3828C82.3828 20.6047 82.3583 20.0212 82.3038 19.518L80.8125 19.6797L79.3212 19.8414C79.3604 20.2028 79.3828 20.6714 79.3828 21.2578H80.8828ZM80.8125 19.6797L82.3038 19.518C82.2475 18.999 82.1381 18.4765 81.9252 18.0138L80.5625 18.6406L79.1998 19.2675C79.2265 19.3255 79.2838 19.4958 79.3212 19.8414L80.8125 19.6797ZM80.5625 18.6406L81.9355 18.0365C81.7197 17.5462 81.3659 17.0779 80.8229 16.7717L80.0859 18.0781L79.349 19.3846C79.2876 19.35 79.2421 19.3087 79.2129 19.2743C79.1856 19.2421 79.1815 19.2264 79.1895 19.2447L80.5625 18.6406ZM80.0859 18.0781L80.8479 16.7861C80.3613 16.4991 79.8323 16.3984 79.3359 16.3984V17.8984V19.3984C79.3844 19.3984 79.4021 19.4034 79.3966 19.4021C79.3936 19.4014 79.3849 19.3991 79.3719 19.3939C79.3587 19.3887 79.3423 19.381 79.324 19.3702L80.0859 18.0781ZM79.3359 17.8984V16.3984C78.8424 16.3984 78.2942 16.4919 77.7936 16.7949L78.5703 18.0781L79.347 19.3614C79.2949 19.3929 79.2583 19.4024 79.2529 19.4037C79.2505 19.4042 79.2557 19.4029 79.2697 19.4014C79.2837 19.3999 79.3055 19.3984 79.3359 19.3984V17.8984ZM78.5703 18.0781L77.8188 16.78C77.2915 17.0852 76.9473 17.5437 76.731 18.0138L78.0938 18.6406L79.4565 19.2675C79.4687 19.2409 79.4689 19.2487 79.4472 19.2743C79.4238 19.302 79.3825 19.3412 79.3219 19.3763L78.5703 18.0781ZM78.0938 18.6406L76.7208 18.0365C76.5208 18.491 76.416 19.0047 76.3603 19.518L77.8516 19.6797L79.3428 19.8414C79.3809 19.4901 79.4375 19.3111 79.4667 19.2447L78.0938 18.6406ZM77.8516 19.6797L76.3603 19.518C76.3057 20.0212 76.2812 20.6047 76.2812 21.2578H77.7812H79.2812C79.2812 20.6714 79.3036 20.2028 79.3428 19.8414L77.8516 19.6797ZM94.3203 24.0078L93.9891 22.5448L93.983 22.5462L94.3203 24.0078ZM95.0391 23.6172L94.0059 22.5297L93.9991 22.5362L93.9923 22.5428L95.0391 23.6172ZM95.5469 22.7656L96.9617 23.2638L96.9639 23.2576L95.5469 22.7656ZM95.5547 19.7656L94.1297 20.2341L94.1317 20.24L95.5547 19.7656ZM95.0625 18.8906L93.9882 19.9374L93.995 19.9444L94.0018 19.9513L95.0625 18.8906ZM94.3438 18.4922L93.9864 19.949L94.0023 19.9529L94.0184 19.9565L94.3438 18.4922ZM92.75 18.3906V16.8906H91.25V18.3906H92.75ZM92.75 24.1016H91.25V25.6016H92.75V24.1016ZM86.8594 27H85.3594V28.4971L86.8564 28.5L86.8594 27ZM86.8594 24.1016V22.6016H85.3594V24.1016H86.8594ZM87.8438 23.9219L88.6205 25.2051L88.6327 25.1977L88.6447 25.1901L87.8438 23.9219ZM87.8438 18.5781L87.0428 19.8464L87.0548 19.854L87.067 19.8614L87.8438 18.5781ZM86.8594 18.3906H85.3594V19.8906H86.8594V18.3906ZM86.8594 15.4922V13.9922H85.3594V15.4922H86.8594ZM99.1719 16.7578L98.216 17.9138L98.2214 17.9183L99.1719 16.7578ZM100.484 18.5391L99.1132 19.1474L99.1185 19.159L100.484 18.5391ZM100.492 23.9766L99.1227 23.3646L99.1191 23.3728L100.492 23.9766ZM99.1641 25.75L98.2297 24.5766L98.2244 24.5808L99.1641 25.75ZM94.8125 27.0156L94.8096 28.5156H94.8125V27.0156ZM93.4844 24.1016V25.6016C93.8809 25.6016 94.2728 25.5582 94.6576 25.4694L94.3203 24.0078L93.983 22.5462C93.8261 22.5824 93.6608 22.6016 93.4844 22.6016V24.1016ZM94.3203 24.0078L94.6516 25.4708C95.198 25.3471 95.685 25.0821 96.0859 24.6915L95.0391 23.6172L93.9923 22.5428C93.9883 22.5467 93.9864 22.5481 93.9867 22.5478C93.987 22.5476 93.9885 22.5466 93.9908 22.5453C93.993 22.5441 93.9948 22.5434 93.9954 22.5432C93.9959 22.543 93.9941 22.5437 93.9891 22.5448L94.3203 24.0078ZM95.0391 23.6172L96.0722 24.7047C96.5036 24.2948 96.78 23.78 96.9617 23.2638L95.5469 22.7656L94.132 22.2674C94.0534 22.4908 93.9912 22.5437 94.0059 22.5297L95.0391 23.6172ZM95.5469 22.7656L96.9639 23.2576C97.1716 22.6594 97.2422 21.9691 97.2422 21.2578H95.7422H94.2422C94.2422 21.807 94.1826 22.1218 94.1299 22.2736L95.5469 22.7656ZM95.7422 21.2578H97.2422C97.2422 20.5575 97.1741 19.8806 96.9777 19.2913L95.5547 19.7656L94.1317 20.24C94.1852 20.4007 94.2422 20.7185 94.2422 21.2578H95.7422ZM95.5547 19.7656L96.9797 19.2971C96.8085 18.7764 96.5446 18.2514 96.1232 17.83L95.0625 18.8906L94.0018 19.9513C93.9866 19.9361 94.0509 19.9944 94.1297 20.2341L95.5547 19.7656ZM95.0625 18.8906L96.1368 17.8438C95.7318 17.4281 95.2305 17.1527 94.6691 17.0279L94.3438 18.4922L94.0184 19.9565C94.0227 19.9574 94.023 19.9578 94.0202 19.9567C94.0173 19.9557 94.0127 19.9537 94.0071 19.9506C94.0015 19.9475 93.9966 19.9442 93.9927 19.9412C93.9889 19.9382 93.9874 19.9366 93.9882 19.9374L95.0625 18.8906ZM94.3438 18.4922L94.7011 17.0354C94.303 16.9377 93.8963 16.8906 93.4844 16.8906V18.3906V19.8906C93.6662 19.8906 93.8324 19.9112 93.9864 19.949L94.3438 18.4922ZM93.4844 18.3906V16.8906H92.75V18.3906V19.8906H93.4844V18.3906ZM92.75 18.3906H91.25V24.1016H92.75H94.25V18.3906H92.75ZM92.75 24.1016V25.6016H93.4844V24.1016V22.6016H92.75V24.1016ZM86.8594 27H88.3594V24.1016H86.8594H85.3594V27H86.8594ZM86.8594 24.1016V25.6016C87.3704 25.6016 88.0525 25.5489 88.6205 25.2051L87.8438 23.9219L87.067 22.6386C87.1259 22.603 87.1696 22.5866 87.186 22.581C87.2029 22.5753 87.2027 22.5768 87.1799 22.581C87.1306 22.59 87.0291 22.6016 86.8594 22.6016V24.1016ZM87.8438 23.9219L88.6447 25.1901C89.4534 24.6794 89.6406 23.8305 89.6406 23.2266H88.1406H86.6406C86.6406 23.259 86.6346 23.1877 86.6869 23.0653C86.7473 22.9239 86.8645 22.7662 87.0428 22.6536L87.8438 23.9219ZM88.1406 23.2266H89.6406V19.2734H88.1406H86.6406V23.2266H88.1406ZM88.1406 19.2734H89.6406C89.6406 18.6808 89.4615 17.8039 88.6205 17.2949L87.8438 18.5781L87.067 19.8614C86.8731 19.744 86.7491 19.5766 86.6869 19.4308C86.6336 19.3059 86.6406 19.2348 86.6406 19.2734H88.1406ZM87.8438 18.5781L88.6447 17.3099C88.0694 16.9465 87.3756 16.8906 86.8594 16.8906V18.3906V19.8906C87.0264 19.8906 87.1239 19.9025 87.1686 19.911C87.189 19.9149 87.1866 19.9159 87.1673 19.909C87.1482 19.9022 87.1026 19.8842 87.0428 19.8464L87.8438 18.5781ZM86.8594 18.3906H88.3594V15.4922H86.8594H85.3594V18.3906H86.8594ZM86.8594 15.4922V16.9922H95.1484V15.4922V13.9922H86.8594V15.4922ZM95.1484 15.4922V16.9922C95.7586 16.9922 96.342 17.073 96.9033 17.2322L97.3125 15.7891L97.7217 14.346C96.8872 14.1093 96.0279 13.9922 95.1484 13.9922V15.4922ZM97.3125 15.7891L96.9033 17.2322C97.4076 17.3752 97.8398 17.6027 98.216 17.9138L99.1719 16.7578L100.128 15.6018C99.4206 15.017 98.6132 14.5988 97.7217 14.346L97.3125 15.7891ZM99.1719 16.7578L98.2214 17.9183C98.5622 18.1974 98.8664 18.5911 99.1133 19.1474L100.484 18.5391L101.855 17.9308C101.446 17.0079 100.875 16.2141 100.122 15.5974L99.1719 16.7578ZM100.484 18.5391L99.1185 19.159C99.339 19.6448 99.4844 20.3252 99.4844 21.2578H100.984H102.484C102.484 20.0342 102.296 18.9021 101.85 17.9191L100.484 18.5391ZM100.984 21.2578H99.4844C99.4844 22.1931 99.3408 22.8765 99.1227 23.3647L100.492 23.9766L101.862 24.5885C102.3 23.6079 102.484 22.4788 102.484 21.2578H100.984ZM100.492 23.9766L99.1191 23.3728C98.8826 23.9107 98.5808 24.297 98.2297 24.5766L99.1641 25.75L100.098 26.9234C100.872 26.3072 101.456 25.5112 101.865 24.5803L100.492 23.9766ZM99.1641 25.75L98.2244 24.5808C97.8445 24.8862 97.3845 25.1195 96.8204 25.2684L97.2031 26.7188L97.5859 28.1691C98.5217 27.9221 99.3691 27.5097 100.104 26.9192L99.1641 25.75ZM97.2031 26.7188L96.8204 25.2684C96.2057 25.4306 95.5383 25.5156 94.8125 25.5156V27.0156V28.5156C95.7742 28.5156 96.7005 28.4027 97.5859 28.1691L97.2031 26.7188ZM94.8125 27.0156L94.8154 25.5156L86.8623 25.5L86.8594 27L86.8564 28.5L94.8096 28.5156L94.8125 27.0156ZM102.289 18.6172L100.915 18.015L100.913 18.0194L102.289 18.6172ZM105.844 15.5625L105.405 14.1282L105.402 14.129L105.844 15.5625ZM113.5 16.7109L112.527 17.8526L112.532 17.8568L113.5 16.7109ZM114.898 18.6172L113.521 19.2115L113.526 19.2229L114.898 18.6172ZM114.898 23.8984L113.525 23.2962L113.523 23.3007L114.898 23.8984ZM113.5 25.8047L114.473 26.9464L114.474 26.9457L113.5 25.8047ZM105.844 26.9531L105.402 28.3866L105.405 28.3874L105.844 26.9531ZM103.695 25.8047L102.722 26.9457L102.727 26.9505L103.695 25.8047ZM102.289 23.8984L100.912 24.4928L100.917 24.5041L102.289 23.8984ZM107.117 22.8438L105.626 23.0074L105.626 23.0094L107.117 22.8438ZM107.359 23.875L105.982 24.4691L105.989 24.4856L105.997 24.5019L107.359 23.875ZM107.836 24.4453L107.059 25.7286L107.072 25.7361L107.084 25.7435L107.836 24.4453ZM109.352 24.4453L110.089 25.7518L110.101 25.7447L110.114 25.7374L109.352 24.4453ZM109.828 23.875L108.461 23.2583L108.455 23.2709L109.828 23.875ZM110.078 22.8438L111.569 23.0094L111.569 23.0074L110.078 22.8438ZM109.828 18.6406L108.455 19.2447L108.46 19.2562L108.465 19.2675L109.828 18.6406ZM109.352 18.0781L108.59 19.3702L108.602 19.3775L108.615 19.3846L109.352 18.0781ZM107.836 18.0781L108.587 19.3763L108.6 19.3689L108.613 19.3614L107.836 18.0781ZM107.359 18.6406L105.997 18.0138L105.991 18.0251L105.986 18.0365L107.359 18.6406ZM101.797 21.2578H103.297C103.297 20.414 103.435 19.7447 103.665 19.2149L102.289 18.6172L100.913 18.0194C100.487 19.0001 100.297 20.0912 100.297 21.2578H101.797ZM102.289 18.6172L103.663 19.2194C103.909 18.6581 104.243 18.212 104.663 17.8568L103.695 16.7109L102.727 15.5651C101.939 16.2307 101.336 17.0555 100.915 18.015L102.289 18.6172ZM103.695 16.7109L104.663 17.8568C105.099 17.4887 105.632 17.1974 106.286 16.996L105.844 15.5625L105.402 14.129C104.399 14.438 103.5 14.9124 102.727 15.5651L103.695 16.7109ZM105.844 15.5625L106.283 16.9967C106.954 16.7912 107.723 16.6797 108.602 16.6797V15.1797V13.6797C107.47 13.6797 106.4 13.8234 105.405 14.1283L105.844 15.5625ZM108.602 15.1797V16.6797C109.474 16.6797 110.241 16.791 110.912 16.9967L111.352 15.5625L111.791 14.1283C110.796 13.8236 109.729 13.6797 108.602 13.6797V15.1797ZM111.352 15.5625L110.912 16.9967C111.571 17.1984 112.1 17.4888 112.527 17.8526L113.5 16.7109L114.473 15.5693C113.702 14.9122 112.799 14.437 111.791 14.1283L111.352 15.5625ZM113.5 16.7109L112.532 17.8568C112.951 18.2104 113.281 18.6538 113.521 19.2115L114.898 18.6172L116.276 18.0229C115.86 17.0598 115.258 16.2323 114.468 15.5651L113.5 16.7109ZM114.898 18.6172L113.526 19.2229C113.759 19.7505 113.898 20.4168 113.898 21.2578H115.398H116.898C116.898 20.0884 116.705 18.9943 116.271 18.0115L114.898 18.6172ZM115.398 21.2578H113.898C113.898 22.0921 113.76 22.7603 113.525 23.2962L114.898 23.8984L116.272 24.5007C116.704 23.5157 116.898 22.4236 116.898 21.2578H115.398ZM114.898 23.8984L113.523 23.3007C113.282 23.8545 112.95 24.3017 112.526 24.6637L113.5 25.8047L114.474 26.9457C115.258 26.2764 115.859 25.4528 116.274 24.4962L114.898 23.8984ZM113.5 25.8047L112.527 24.663C112.1 25.0268 111.571 25.3172 110.912 25.5189L111.352 26.9531L111.791 28.3874C112.799 28.0786 113.702 27.6034 114.473 26.9464L113.5 25.8047ZM111.352 26.9531L110.912 25.5189C110.241 25.7246 109.474 25.8359 108.602 25.8359V27.3359V28.8359C109.729 28.8359 110.796 28.692 111.791 28.3874L111.352 26.9531ZM108.602 27.3359V25.8359C107.723 25.8359 106.954 25.7244 106.283 25.5189L105.844 26.9531L105.405 28.3874C106.4 28.6923 107.47 28.8359 108.602 28.8359V27.3359ZM105.844 26.9531L106.286 25.5197C105.632 25.3182 105.099 25.027 104.663 24.6589L103.695 25.8047L102.727 26.9505C103.5 27.6032 104.399 28.0776 105.402 28.3866L105.844 26.9531ZM103.695 25.8047L104.669 24.6637C104.243 24.3001 103.907 23.8502 103.661 23.2927L102.289 23.8984L100.917 24.5041C101.337 25.4571 101.939 26.278 102.722 26.9457L103.695 25.8047ZM102.289 23.8984L103.666 23.3041C103.434 22.7661 103.297 22.0949 103.297 21.2578H101.797H100.297C100.297 22.4207 100.488 23.51 100.912 24.4927L102.289 23.8984ZM107.047 21.2578H105.547C105.547 21.92 105.571 22.5073 105.626 23.0074L107.117 22.8438L108.608 22.6801C108.569 22.326 108.547 21.856 108.547 21.2578H107.047ZM107.117 22.8438L105.626 23.0094C105.683 23.5167 105.788 24.0195 105.982 24.4691L107.359 23.875L108.737 23.2809C108.701 23.1992 108.645 23.0145 108.608 22.6781L107.117 22.8438ZM107.359 23.875L105.997 24.5019C106.212 24.9692 106.549 25.4199 107.059 25.7286L107.836 24.4453L108.613 23.1621C108.665 23.1938 108.7 23.2281 108.719 23.2511C108.737 23.2723 108.735 23.2763 108.722 23.2481L107.359 23.875ZM107.836 24.4453L107.084 25.7435C107.579 26.03 108.118 26.1172 108.602 26.1172V24.6172V23.1172C108.569 23.1172 108.545 23.1157 108.529 23.114C108.52 23.1132 108.514 23.1124 108.51 23.1117C108.508 23.1114 108.507 23.1111 108.506 23.1109C108.505 23.1108 108.504 23.1106 108.504 23.1106C108.504 23.1106 108.537 23.1181 108.587 23.1472L107.836 24.4453ZM108.602 24.6172V26.1172C109.088 26.1172 109.607 26.0233 110.089 25.7518L109.352 24.4453L108.615 23.1388C108.632 23.1289 108.647 23.1223 108.658 23.118C108.67 23.1138 108.676 23.1122 108.677 23.1121C108.677 23.112 108.654 23.1172 108.602 23.1172V24.6172ZM109.352 24.4453L110.114 25.7374C110.639 25.4273 110.987 24.9665 111.201 24.4791L109.828 23.875L108.455 23.2709C108.446 23.2907 108.449 23.2789 108.472 23.2511C108.497 23.2213 108.536 23.1847 108.59 23.1533L109.352 24.4453ZM109.828 23.875L111.196 24.4917C111.402 24.034 111.512 23.5226 111.569 23.0094L110.078 22.8438L108.587 22.6781C108.551 23.0086 108.494 23.1848 108.461 23.2583L109.828 23.875ZM110.078 22.8438L111.569 23.0074C111.624 22.5073 111.648 21.92 111.648 21.2578H110.148H108.648C108.648 21.856 108.626 22.326 108.587 22.6801L110.078 22.8438ZM110.148 21.2578H111.648C111.648 20.6047 111.624 20.0212 111.569 19.518L110.078 19.6797L108.587 19.8414C108.626 20.2028 108.648 20.6714 108.648 21.2578H110.148ZM110.078 19.6797L111.569 19.518C111.513 18.999 111.404 18.4765 111.191 18.0138L109.828 18.6406L108.465 19.2675C108.492 19.3255 108.549 19.4958 108.587 19.8414L110.078 19.6797ZM109.828 18.6406L111.201 18.0365C110.985 17.5462 110.632 17.0779 110.089 16.7717L109.352 18.0781L108.615 19.3846C108.553 19.35 108.508 19.3087 108.479 19.2743C108.451 19.2421 108.447 19.2264 108.455 19.2447L109.828 18.6406ZM109.352 18.0781L110.114 16.7861C109.627 16.4991 109.098 16.3984 108.602 16.3984V17.8984V19.3984C108.65 19.3984 108.668 19.4034 108.662 19.4021C108.659 19.4014 108.651 19.3991 108.637 19.3939C108.624 19.3887 108.608 19.381 108.59 19.3702L109.352 18.0781ZM108.602 17.8984V16.3984C108.108 16.3984 107.56 16.4919 107.059 16.7949L107.836 18.0781L108.613 19.3614C108.561 19.3929 108.524 19.4024 108.519 19.4037C108.516 19.4042 108.521 19.4029 108.535 19.4014C108.549 19.3999 108.571 19.3984 108.602 19.3984V17.8984ZM107.836 18.0781L107.084 16.78C106.557 17.0852 106.213 17.5437 105.997 18.0138L107.359 18.6406L108.722 19.2675C108.734 19.2409 108.735 19.2487 108.713 19.2743C108.689 19.302 108.648 19.3412 108.587 19.3763L107.836 18.0781ZM107.359 18.6406L105.986 18.0365C105.786 18.491 105.682 19.0047 105.626 19.518L107.117 19.6797L108.608 19.8414C108.647 19.4901 108.703 19.3111 108.732 19.2447L107.359 18.6406ZM107.117 19.6797L105.626 19.518C105.571 20.0212 105.547 20.6047 105.547 21.2578H107.047H108.547C108.547 20.6714 108.569 20.2028 108.608 19.8414L107.117 19.6797ZM72.7656 39.3906V40.8906H74.2656V39.3906H72.7656ZM71.7812 39.5781L72.5732 40.8521L72.5822 40.8464L71.7812 39.5781ZM71.4922 45.1016H69.9922V46.6016H71.4922V45.1016ZM73.9375 44.7812L75.2009 45.5898L75.208 45.5787L75.215 45.5674L73.9375 44.7812ZM74.1094 44.2188L72.6264 43.9931L72.624 44.0089L72.622 44.0247L74.1094 44.2188ZM74.1641 43.2656V41.7656H72.6641V43.2656H74.1641ZM76.8984 43.2656H78.3984V41.7656H76.8984V43.2656ZM76.8984 48V49.5H78.3984V48H76.8984ZM65.6016 48H64.1016V49.5H65.6016V48ZM65.6016 45.1016V43.6016H64.1016V45.1016H65.6016ZM66.5859 44.9219L67.3626 46.2051L67.3749 46.1977L67.3869 46.1901L66.5859 44.9219ZM66.5859 39.5781L65.7849 40.8464L65.797 40.854L65.8092 40.8614L66.5859 39.5781ZM65.6016 39.3906H64.1016V40.8906H65.6016V39.3906ZM65.6016 36.4922V34.9922H64.1016V36.4922H65.6016ZM72.7656 36.4922H74.2656V34.9922H72.7656V36.4922ZM72.7656 39.3906V37.8906C72.2494 37.8906 71.5556 37.9465 70.9803 38.3099L71.7812 39.5781L72.5822 40.8464C72.5224 40.8842 72.4768 40.9022 72.4577 40.909C72.4384 40.9159 72.436 40.9149 72.4564 40.911C72.5011 40.9025 72.5986 40.8906 72.7656 40.8906V39.3906ZM71.7812 39.5781L70.9893 38.3042C70.159 38.8204 69.9922 39.6964 69.9922 40.2734H71.4922H72.9922C72.9922 40.2308 72.9997 40.297 72.9495 40.4176C72.891 40.5585 72.7706 40.7293 72.5732 40.8521L71.7812 39.5781ZM71.4922 40.2734H69.9922V45.1016H71.4922H72.9922V40.2734H71.4922ZM71.4922 45.1016V46.6016H73.0547V45.1016V43.6016H71.4922V45.1016ZM73.0547 45.1016V46.6016C73.3556 46.6016 73.6838 46.5734 74.0058 46.4813L73.5938 45.0391L73.1817 43.5968C73.2003 43.5914 73.2007 43.5932 73.1769 43.5959C73.1535 43.5986 73.1137 43.6016 73.0547 43.6016V45.1016ZM73.5938 45.0391L74.0058 46.4813C74.5106 46.3371 74.9247 46.0214 75.2009 45.5898L73.9375 44.7812L72.6741 43.9727C72.7215 43.8987 72.7918 43.8163 72.8891 43.7434C72.9867 43.6701 73.089 43.6233 73.1817 43.5968L73.5938 45.0391ZM73.9375 44.7812L75.215 45.5674C75.4517 45.1827 75.551 44.7636 75.5968 44.4128L74.1094 44.2188L72.622 44.0247C72.6185 44.0515 72.615 44.071 72.6123 44.0842C72.6095 44.0974 72.6079 44.1025 72.6084 44.1007C72.609 44.099 72.6123 44.0885 72.6199 44.071C72.6275 44.0535 72.6402 44.0273 72.66 43.9951L73.9375 44.7812ZM74.1094 44.2188L75.5923 44.4444C75.645 44.0984 75.6641 43.6961 75.6641 43.2656H74.1641H72.6641C72.6641 43.6268 72.6467 43.8599 72.6264 43.9931L74.1094 44.2188ZM74.1641 43.2656V44.7656H76.8984V43.2656V41.7656H74.1641V43.2656ZM76.8984 43.2656H75.3984V48H76.8984H78.3984V43.2656H76.8984ZM76.8984 48V46.5H65.6016V48V49.5H76.8984V48ZM65.6016 48H67.1016V45.1016H65.6016H64.1016V48H65.6016ZM65.6016 45.1016V46.6016C66.1126 46.6016 66.7947 46.5489 67.3626 46.2051L66.5859 44.9219L65.8092 43.6386C65.8681 43.603 65.9118 43.5866 65.9282 43.581C65.9451 43.5753 65.9449 43.5768 65.922 43.581C65.8728 43.59 65.7713 43.6016 65.6016 43.6016V45.1016ZM66.5859 44.9219L67.3869 46.1901C68.1956 45.6794 68.3828 44.8305 68.3828 44.2266H66.8828H65.3828C65.3828 44.259 65.3768 44.1877 65.4291 44.0653C65.4895 43.9239 65.6067 43.7662 65.7849 43.6536L66.5859 44.9219ZM66.8828 44.2266H68.3828V40.2734H66.8828H65.3828V44.2266H66.8828ZM66.8828 40.2734H68.3828C68.3828 39.6808 68.2037 38.8039 67.3626 38.2949L66.5859 39.5781L65.8092 40.8614C65.6153 40.744 65.4913 40.5766 65.4291 40.4308C65.3758 40.3059 65.3828 40.2348 65.3828 40.2734H66.8828ZM66.5859 39.5781L67.3869 38.3099C66.8116 37.9465 66.1178 37.8906 65.6016 37.8906V39.3906V40.8906C65.7686 40.8906 65.8661 40.9025 65.9107 40.911C65.9312 40.9149 65.9288 40.9159 65.9095 40.909C65.8904 40.9022 65.8448 40.8842 65.7849 40.8464L66.5859 39.5781ZM65.6016 39.3906H67.1016V36.4922H65.6016H64.1016V39.3906H65.6016ZM65.6016 36.4922V37.9922H72.7656V36.4922V34.9922H65.6016V36.4922ZM72.7656 36.4922H71.2656V39.3906H72.7656H74.2656V36.4922H72.7656ZM77.5391 48H76.0391V49.5H77.5391V48ZM77.5391 45.1016V43.6016H76.0391V45.1016H77.5391ZM78.5234 44.9219L79.3001 46.2051L79.3124 46.1977L79.3244 46.1901L78.5234 44.9219ZM78.5234 39.5781L77.7224 40.8464L77.7345 40.854L77.7467 40.8614L78.5234 39.5781ZM77.5391 39.3906H76.0391V40.8906H77.5391V39.3906ZM77.5391 36.4922V34.9922H76.0391V36.4922H77.5391ZM84.7031 36.4922H86.2031V34.9922H84.7031V36.4922ZM84.7031 39.3906V40.8906H86.2031V39.3906H84.7031ZM83.7188 39.5781L84.5107 40.8521L84.5197 40.8464L83.7188 39.5781ZM83.7188 44.9219L82.9025 46.1803L82.9221 46.193L82.942 46.2051L83.7188 44.9219ZM84.7031 45.1016H86.2031V43.6016H84.7031V45.1016ZM84.7031 48V49.5H86.2031V48H84.7031ZM77.5391 48H79.0391V45.1016H77.5391H76.0391V48H77.5391ZM77.5391 45.1016V46.6016C78.0501 46.6016 78.7322 46.5489 79.3001 46.2051L78.5234 44.9219L77.7467 43.6386C77.8056 43.603 77.8493 43.5866 77.8657 43.581C77.8826 43.5753 77.8824 43.5768 77.8595 43.581C77.8103 43.59 77.7088 43.6016 77.5391 43.6016V45.1016ZM78.5234 44.9219L79.3244 46.1901C80.1331 45.6794 80.3203 44.8305 80.3203 44.2266H78.8203H77.3203C77.3203 44.259 77.3143 44.1877 77.3666 44.0653C77.427 43.9239 77.5442 43.7662 77.7224 43.6536L78.5234 44.9219ZM78.8203 44.2266H80.3203V40.2734H78.8203H77.3203V44.2266H78.8203ZM78.8203 40.2734H80.3203C80.3203 39.6808 80.1412 38.8039 79.3001 38.2949L78.5234 39.5781L77.7467 40.8614C77.5528 40.744 77.4288 40.5766 77.3666 40.4308C77.3133 40.3059 77.3203 40.2348 77.3203 40.2734H78.8203ZM78.5234 39.5781L79.3244 38.3099C78.7491 37.9465 78.0553 37.8906 77.5391 37.8906V39.3906V40.8906C77.7061 40.8906 77.8036 40.9025 77.8482 40.911C77.8687 40.9149 77.8663 40.9159 77.847 40.909C77.8279 40.9022 77.7823 40.8842 77.7224 40.8464L78.5234 39.5781ZM77.5391 39.3906H79.0391V36.4922H77.5391H76.0391V39.3906H77.5391ZM77.5391 36.4922V37.9922H84.7031V36.4922V34.9922H77.5391V36.4922ZM84.7031 36.4922H83.2031V39.3906H84.7031H86.2031V36.4922H84.7031ZM84.7031 39.3906V37.8906C84.1869 37.8906 83.4931 37.9465 82.9178 38.3099L83.7188 39.5781L84.5197 40.8464C84.4599 40.8842 84.4143 40.9022 84.3952 40.909C84.3759 40.9159 84.3735 40.9149 84.3939 40.911C84.4386 40.9025 84.5361 40.8906 84.7031 40.8906V39.3906ZM83.7188 39.5781L82.9268 38.3042C82.0965 38.8204 81.9297 39.6964 81.9297 40.2734H83.4297H84.9297C84.9297 40.2308 84.9372 40.297 84.887 40.4176C84.8285 40.5585 84.7081 40.7293 84.5107 40.8521L83.7188 39.5781ZM83.4297 40.2734H81.9297V44.2266H83.4297H84.9297V40.2734H83.4297ZM83.4297 44.2266H81.9297C81.9297 44.8152 82.1046 45.6628 82.9025 46.1803L83.7188 44.9219L84.535 43.6634C84.7165 43.7811 84.8302 43.9418 84.887 44.0785C84.9362 44.1967 84.9297 44.2631 84.9297 44.2266H83.4297ZM83.7188 44.9219L82.942 46.2051C83.51 46.5489 84.1921 46.6016 84.7031 46.6016V45.1016V43.6016C84.5334 43.6016 84.4319 43.59 84.3826 43.581C84.3598 43.5768 84.3596 43.5753 84.3765 43.581C84.3929 43.5866 84.4366 43.603 84.4955 43.6386L83.7188 44.9219ZM84.7031 45.1016H83.2031V48H84.7031H86.2031V45.1016H84.7031ZM84.7031 48V46.5H77.5391V48V49.5H84.7031V48ZM96.0078 40.6719V42.1719H97.5078V40.6719H96.0078ZM93.4297 40.6719L91.9478 40.9043L92.1466 42.1719H93.4297V40.6719ZM93.1484 39.9297L91.87 40.7142L91.8764 40.7247L91.8829 40.735L93.1484 39.9297ZM91.9297 38.9531L91.4125 40.3611L91.4252 40.3658L91.438 40.3703L91.9297 38.9531ZM90.3125 40.0469L89.418 41.251L89.4293 41.2593L89.4406 41.2675L90.3125 40.0469ZM91.0312 40.3906L90.5569 41.8136L90.5682 41.8174L90.5796 41.821L91.0312 40.3906ZM93.2031 40.9922L92.7288 42.4152L92.7344 42.4171L93.2031 40.9922ZM94.3672 41.4688L93.7037 42.8141L93.7112 42.8177L93.7187 42.8213L94.3672 41.4688ZM95.3828 42.1797L94.3315 43.2497L94.3413 43.2591L95.3828 42.1797ZM89.7969 48L89.4266 49.4536L89.4299 49.4544L89.7969 48ZM88.1016 47.3125L88.824 45.9979L86.6016 44.7766V47.3125H88.1016ZM88.1016 48V49.5H89.6016V48H88.1016ZM85.5234 48H84.0234V49.5H85.5234V48ZM85.5234 43.7422V42.2422H84.0234V43.7422H85.5234ZM88.1016 43.7422L89.5575 43.3813L89.2752 42.2422H88.1016V43.7422ZM89.0078 45.1875L88.0841 46.3694L88.0926 46.3759L89.0078 45.1875ZM91.3906 45.5L92.2906 46.7L92.3012 46.6921L92.3115 46.684L91.3906 45.5ZM91.2031 44.3438L90.5232 45.6809L90.5323 45.6854L91.2031 44.3438ZM90.0547 43.9297L89.66 45.3768L89.6677 45.3789L89.6754 45.3809L90.0547 43.9297ZM88.5469 43.5156L88.1311 44.9569L88.1393 44.9592L88.1475 44.9615L88.5469 43.5156ZM87.0469 42.8516L86.2415 44.1171L86.2519 44.1236L87.0469 42.8516ZM85.8906 41.7031L84.632 42.5192L84.6383 42.5288L85.8906 41.7031ZM85.7969 38.3359L84.4879 37.6035L85.7969 38.3359ZM86.7812 37.2344L87.659 38.4508L87.669 38.4435L86.7812 37.2344ZM88.2031 36.5547L88.6097 37.9986L88.6189 37.9959L88.2031 36.5547ZM93.4297 37.2188L92.6115 38.476L94.9297 39.9846V37.2188H93.4297ZM93.4297 36.4922V34.9922H91.9297V36.4922H93.4297ZM96.0078 36.4922H97.5078V34.9922H96.0078V36.4922ZM96.0078 40.6719V39.1719H93.4297V40.6719V42.1719H96.0078V40.6719ZM93.4297 40.6719L94.9116 40.4394C94.8376 39.9679 94.6693 39.5257 94.4139 39.1244L93.1484 39.9297L91.8829 40.735C91.9192 40.792 91.9384 40.8446 91.9478 40.9043L93.4297 40.6719ZM93.1484 39.9297L94.4269 39.1452C94.1964 38.7695 93.9067 38.4404 93.562 38.1646L92.625 39.3359L91.688 40.5072C91.7599 40.5648 91.8192 40.6316 91.87 40.7142L93.1484 39.9297ZM92.625 39.3359L93.562 38.1646C93.2186 37.8899 92.8359 37.6798 92.4213 37.536L91.9297 38.9531L91.438 40.3703C91.5339 40.4035 91.6147 40.4486 91.688 40.5072L92.625 39.3359ZM91.9297 38.9531L92.4469 37.5451C92.0267 37.3908 91.5886 37.3125 91.1406 37.3125V38.8125V40.3125C91.2343 40.3125 91.3223 40.328 91.4125 40.3611L91.9297 38.9531ZM91.1406 38.8125V37.3125C90.6352 37.3125 90.0701 37.4072 89.5576 37.7225L90.3438 39L91.1299 40.2775C91.0765 40.3103 91.0403 40.3192 91.0389 40.3195C91.0384 40.3196 91.0461 40.3178 91.0633 40.316C91.0805 40.3142 91.106 40.3125 91.1406 40.3125V38.8125ZM90.3438 39L89.5576 37.7225C88.9457 38.0991 88.5391 38.739 88.5391 39.5234H90.0391H91.5391C91.5391 39.6468 91.5084 39.8129 91.4116 39.9792C91.3173 40.1413 91.2007 40.2339 91.1299 40.2775L90.3438 39ZM90.0391 39.5234H88.5391C88.5391 40.2456 88.883 40.8535 89.418 41.251L90.3125 40.0469L91.207 38.8428C91.2695 38.8892 91.3628 38.978 91.4369 39.1199C91.5127 39.2649 91.5391 39.4093 91.5391 39.5234H90.0391ZM90.3125 40.0469L89.4406 41.2675C89.7822 41.5114 90.1699 41.6846 90.5569 41.8136L91.0312 40.3906L91.5056 38.9676C91.2989 38.8987 91.2074 38.8427 91.1844 38.8263L90.3125 40.0469ZM91.0312 40.3906L90.5796 41.821C90.921 41.9288 91.2979 42.0298 91.7067 42.125L92.0469 40.6641L92.3871 39.2032C92.0355 39.1213 91.7352 39.0399 91.4829 38.9603L91.0312 40.3906ZM92.0469 40.6641L91.7067 42.125C92.0392 42.2024 92.3799 42.2989 92.7288 42.4152L93.2031 40.9922L93.6775 39.5692C93.2451 39.425 92.815 39.3028 92.3871 39.2032L92.0469 40.6641ZM93.2031 40.9922L92.7344 42.4171C93.0624 42.525 93.3854 42.6571 93.7037 42.8141L94.3672 41.4688L95.0306 40.1234C94.5885 39.9054 94.1355 39.7198 93.6718 39.5673L93.2031 40.9922ZM94.3672 41.4688L93.7187 42.8213C93.952 42.9332 94.154 43.0753 94.3316 43.2497L95.3828 42.1797L96.434 41.1097C96.0178 40.7008 95.5428 40.3689 95.0157 40.1162L94.3672 41.4688ZM95.3828 42.1797L94.3413 43.2591C94.4833 43.3961 94.6155 43.5801 94.7273 43.8356L96.1016 43.2344L97.4758 42.6331C97.223 42.0553 96.8761 41.5362 96.4244 41.1003L95.3828 42.1797ZM96.1016 43.2344L94.7273 43.8356C94.8068 44.0172 94.875 44.3018 94.875 44.7344H96.375H97.875C97.875 44.0003 97.7609 43.2849 97.4758 42.6331L96.1016 43.2344ZM96.375 44.7344H94.875C94.875 45.1377 94.7901 45.3841 94.6944 45.5418L95.9766 46.3203L97.2587 47.0988C97.6942 46.3815 97.875 45.5706 97.875 44.7344H96.375ZM95.9766 46.3203L94.6944 45.5418C94.5539 45.7732 94.3658 45.9666 94.1086 46.1281L94.9062 47.3984L95.7039 48.6688C96.3426 48.2677 96.8679 47.7424 97.2587 47.0988L95.9766 46.3203ZM94.9062 47.3984L94.1086 46.1281C93.823 46.3074 93.4705 46.4539 93.0326 46.5517L93.3594 48.0156L93.6862 49.4796C94.4149 49.3169 95.0937 49.0519 95.7039 48.6688L94.9062 47.3984ZM93.3594 48.0156L93.0326 46.5517C92.5613 46.6568 92.067 46.7109 91.5469 46.7109V48.2109V49.7109C92.2768 49.7109 92.9908 49.6348 93.6862 49.4796L93.3594 48.0156ZM91.5469 48.2109V46.7109C91.0538 46.7109 90.5942 46.6542 90.1639 46.5456L89.7969 48L89.4299 49.4544C90.1141 49.6271 90.8212 49.7109 91.5469 49.7109V48.2109ZM89.7969 48L90.1671 46.5464C89.7554 46.4415 89.3081 46.264 88.824 45.9979L88.1016 47.3125L87.3791 48.6271C88.0513 48.9964 88.7342 49.2772 89.4266 49.4536L89.7969 48ZM88.1016 47.3125H86.6016V48H88.1016H89.6016V47.3125H88.1016ZM88.1016 48V46.5H85.5234V48V49.5H88.1016V48ZM85.5234 48H87.0234V43.7422H85.5234H84.0234V48H85.5234ZM85.5234 43.7422V45.2422H88.1016V43.7422V42.2422H85.5234V43.7422ZM88.1016 43.7422L86.6456 44.1031C86.8695 45.0062 87.3421 45.7894 88.0841 46.3693L89.0078 45.1875L89.9315 44.0057C89.7672 43.8772 89.6357 43.697 89.5575 43.3813L88.1016 43.7422ZM89.0078 45.1875L88.0926 46.3759C88.8059 46.9253 89.6376 47.2109 90.5391 47.2109V45.7109V44.2109C90.3051 44.2109 90.1159 44.1476 89.923 43.9991L89.0078 45.1875ZM90.5391 45.7109V47.2109C91.0579 47.2109 91.7262 47.1233 92.2906 46.7L91.3906 45.5L90.4906 44.3C90.5922 44.2238 90.67 44.2038 90.6764 44.2022C90.6807 44.2011 90.6723 44.2035 90.6482 44.2061C90.6243 44.2086 90.5884 44.2109 90.5391 44.2109V45.7109ZM91.3906 45.5L92.3115 46.684C92.7441 46.3476 93.1719 45.7866 93.1719 45.0078H91.6719H90.1719C90.1719 44.8281 90.2215 44.6593 90.2992 44.5234C90.371 44.3977 90.4471 44.3335 90.4697 44.316L91.3906 45.5ZM91.6719 45.0078H93.1719C93.1719 44.5736 93.0474 44.1406 92.7801 43.7619C92.5239 43.3989 92.1893 43.1598 91.8739 43.0021L91.2031 44.3438L90.5323 45.6854C90.5295 45.684 90.4292 45.6336 90.3292 45.492C90.2182 45.3346 90.1719 45.1556 90.1719 45.0078H91.6719ZM91.2031 44.3438L91.883 43.0067C91.4518 42.7874 90.9607 42.6161 90.434 42.4784L90.0547 43.9297L89.6754 45.3809C90.0654 45.4829 90.3398 45.5876 90.5233 45.6808L91.2031 44.3438ZM90.0547 43.9297L90.4494 42.4825C89.9928 42.358 89.4918 42.2205 88.9462 42.0698L88.5469 43.5156L88.1475 44.9615C88.6957 45.1129 89.1999 45.2513 89.66 45.3768L90.0547 43.9297ZM88.5469 43.5156L88.9626 42.0744C88.5488 41.955 88.1773 41.7892 87.8419 41.5796L87.0469 42.8516L86.2519 44.1236C86.8332 44.4869 87.4616 44.7637 88.1311 44.9569L88.5469 43.5156ZM87.0469 42.8516L87.8522 41.5861C87.5802 41.413 87.3444 41.1831 87.1429 40.8774L85.8906 41.7031L84.6383 42.5288C85.0618 43.1711 85.5969 43.7068 86.2416 44.1171L87.0469 42.8516ZM85.8906 41.7031L87.1492 40.8871C87.0463 40.7283 86.9297 40.4198 86.9297 39.8438H85.4297H83.9297C83.9297 40.799 84.1204 41.73 84.632 42.5191L85.8906 41.7031ZM85.4297 39.8438H86.9297C86.9297 39.498 87.0022 39.2538 87.1059 39.0684L85.7969 38.3359L84.4879 37.6035C84.102 38.2931 83.9297 39.0541 83.9297 39.8438H85.4297ZM85.7969 38.3359L87.1059 39.0684C87.2426 38.8241 87.4226 38.6213 87.6589 38.4508L86.7812 37.2344L85.9036 36.018C85.317 36.4412 84.8407 36.9728 84.4879 37.6035L85.7969 38.3359ZM86.7812 37.2344L87.669 38.4435C87.9226 38.2572 88.2304 38.1053 88.6096 37.9985L88.2031 36.5547L87.7966 35.1108C87.1029 35.3061 86.4628 35.6073 85.8935 36.0253L86.7812 37.2344ZM88.2031 36.5547L88.6189 37.9959C89.0172 37.881 89.447 37.8203 89.9141 37.8203V36.3203V34.8203C89.1832 34.8203 88.4724 34.9159 87.7874 35.1135L88.2031 36.5547ZM89.9141 36.3203V37.8203C90.6331 37.8203 91.1794 37.9048 91.5838 38.0361L92.0469 36.6094L92.5099 35.1826C91.7269 34.9285 90.8513 34.8203 89.9141 34.8203V36.3203ZM92.0469 36.6094L91.5838 38.0361C92.1171 38.2092 92.4392 38.3638 92.6115 38.476L93.4297 37.2188L94.2479 35.9615C93.764 35.6466 93.1642 35.395 92.5099 35.1826L92.0469 36.6094ZM93.4297 37.2188H94.9297V36.4922H93.4297H91.9297V37.2188H93.4297ZM93.4297 36.4922V37.9922H96.0078V36.4922V34.9922H93.4297V36.4922ZM96.0078 36.4922H94.5078V40.6719H96.0078H97.5078V36.4922H96.0078ZM109.547 36.4922H111.047V34.9922H109.547V36.4922ZM109.547 41.0703V42.5703H111.047V41.0703H109.547ZM106.977 41.0703H105.477V42.5703H106.977V41.0703ZM106.945 40.1641L105.448 40.2539L105.449 40.27L105.45 40.2861L106.945 40.1641ZM106.828 39.5391L105.429 40.0806L105.432 40.0884L105.435 40.0961L106.828 39.5391ZM106.539 39.1875L105.744 40.4595L105.775 40.4786L105.806 40.4963L106.539 39.1875ZM105.547 39.0703V37.5703H104.047V39.0703H105.547ZM105.844 44.9219L105.043 46.1901L105.055 46.1977L105.067 46.2051L105.844 44.9219ZM106.828 45.1016H108.328V43.6016H106.828V45.1016ZM106.828 48V49.5H108.328V48H106.828ZM99.6641 48H98.1641V49.5H99.6641V48ZM99.6641 45.1016V43.6016H98.1641V45.1016H99.6641ZM100.641 44.9219L101.433 46.1958L101.442 46.1901L100.641 44.9219ZM100.938 39.0703H102.438V37.5703H100.938V39.0703ZM99.9453 39.1875L100.701 40.4832L100.709 40.4785L100.717 40.4737L99.9453 39.1875ZM99.6562 39.5391L98.273 38.959L98.2682 38.9704L98.2635 38.982L99.6562 39.5391ZM99.5391 40.1641L101.036 40.2557L101.036 40.2539L99.5391 40.1641ZM99.5156 41.0703V42.5703H101.016V41.0703H99.5156ZM96.9375 41.0703H95.4375V42.5703H96.9375V41.0703ZM96.9375 36.4922V34.9922H95.4375V36.4922H96.9375ZM109.547 36.4922H108.047V41.0703H109.547H111.047V36.4922H109.547ZM109.547 41.0703V39.5703H106.977V41.0703V42.5703H109.547V41.0703ZM106.977 41.0703H108.477C108.477 40.6941 108.465 40.3493 108.44 40.042L106.945 40.1641L105.45 40.2861C105.467 40.4892 105.477 40.7486 105.477 41.0703H106.977ZM106.945 40.1641L108.443 40.0742C108.422 39.7316 108.366 39.3459 108.221 38.982L106.828 39.5391L105.435 40.0961C105.422 40.0638 105.424 40.0573 105.43 40.0889C105.436 40.1193 105.443 40.1726 105.448 40.2539L106.945 40.1641ZM106.828 39.5391L108.227 38.9976C108.06 38.5655 107.754 38.1488 107.272 37.8787L106.539 39.1875L105.806 40.4963C105.706 40.44 105.619 40.3658 105.55 40.2827C105.484 40.2019 105.448 40.1281 105.429 40.0806L106.828 39.5391ZM106.539 39.1875L107.334 37.9155C106.887 37.6358 106.407 37.5703 106.031 37.5703V39.0703V40.5703C106.049 40.5703 106.029 40.5722 105.981 40.5612C105.932 40.5498 105.845 40.5227 105.744 40.4595L106.539 39.1875ZM106.031 39.0703V37.5703H105.547V39.0703V40.5703H106.031V39.0703ZM105.547 39.0703H104.047V44.2266H105.547H107.047V39.0703H105.547ZM105.547 44.2266H104.047C104.047 44.8305 104.234 45.6794 105.043 46.1901L105.844 44.9219L106.645 43.6536C106.823 43.7662 106.94 43.9239 107.001 44.0653C107.053 44.1877 107.047 44.259 107.047 44.2266H105.547ZM105.844 44.9219L105.067 46.2051C105.635 46.5489 106.317 46.6016 106.828 46.6016V45.1016V43.6016C106.658 43.6016 106.557 43.59 106.508 43.581C106.485 43.5768 106.485 43.5753 106.501 43.581C106.518 43.5866 106.562 43.603 106.62 43.6386L105.844 44.9219ZM106.828 45.1016H105.328V48H106.828H108.328V45.1016H106.828ZM106.828 48V46.5H99.6641V48V49.5H106.828V48ZM99.6641 48H101.164V45.1016H99.6641H98.1641V48H99.6641ZM99.6641 45.1016V46.6016C100.169 46.6016 100.861 46.551 101.433 46.1958L100.641 44.9219L99.8487 43.6479C99.9123 43.6085 99.9604 43.59 99.9798 43.5833C99.9996 43.5764 100.002 43.5775 99.9805 43.5814C99.934 43.59 99.8341 43.6016 99.6641 43.6016V45.1016ZM100.641 44.9219L101.442 46.1901C102.25 45.6794 102.438 44.8305 102.438 44.2266H100.938H99.4375C99.4375 44.259 99.4315 44.1877 99.4838 44.0653C99.5441 43.9239 99.6614 43.7662 99.8396 43.6536L100.641 44.9219ZM100.938 44.2266H102.438V39.0703H100.938H99.4375V44.2266H100.938ZM100.938 39.0703V37.5703H100.461V39.0703V40.5703H100.938V39.0703ZM100.461 39.0703V37.5703C100.081 37.5703 99.613 37.6376 99.1736 37.9013L99.9453 39.1875L100.717 40.4737C100.538 40.5812 100.414 40.5703 100.461 40.5703V39.0703ZM99.9453 39.1875L99.1895 37.8918C98.7281 38.161 98.4395 38.5619 98.273 38.959L99.6562 39.5391L101.04 40.1192C101.008 40.1933 100.913 40.3599 100.701 40.4832L99.9453 39.1875ZM99.6562 39.5391L98.2635 38.982C98.118 39.3459 98.0623 39.7316 98.0418 40.0742L99.5391 40.1641L101.036 40.2539C101.041 40.1726 101.049 40.1193 101.054 40.0889C101.06 40.0573 101.062 40.0638 101.049 40.0961L99.6562 39.5391ZM99.5391 40.1641L98.0419 40.0724C98.0238 40.3668 98.0156 40.7009 98.0156 41.0703H99.5156H101.016C101.016 40.7418 101.023 40.4717 101.036 40.2557L99.5391 40.1641ZM99.5156 41.0703V39.5703H96.9375V41.0703V42.5703H99.5156V41.0703ZM96.9375 41.0703H98.4375V36.4922H96.9375H95.4375V41.0703H96.9375ZM96.9375 36.4922V37.9922H109.547V36.4922V34.9922H96.9375V36.4922Z" fill="#E6D9D9" mask="url(#path-2-outside-1_177_6012)"/>
<g filter="url(#filter0_d_177_6012)">
<path d="M46.8729 14.9666C46.8729 14.4379 46.6629 13.9307 46.289 13.5568C45.9151 13.1829 45.4079 12.9729 44.8792 12.9729H34.0188C33.501 11.7917 32.6503 10.7869 31.5707 10.0813C30.4911 9.37574 29.2293 9 27.9396 9C26.6499 9 25.3881 9.37574 24.3085 10.0813C23.2289 10.7869 22.3782 11.7917 21.8604 12.9729H10.9917C10.4633 12.9734 9.95667 13.1837 9.58322 13.5576C9.20977 13.9314 9 14.4382 9 14.9666V52.8416C9.00055 53.3697 9.21056 53.876 9.58395 54.2494C9.95735 54.6227 10.4636 54.8328 10.9917 54.8333H44.8792C45.4079 54.8333 45.9151 54.6233 46.289 54.2494C46.6629 53.8755 46.8729 53.3683 46.8729 52.8396V14.9666Z" fill="#300A65"/>
<path d="M46.8729 14.9666C46.8729 14.4379 46.6629 13.9307 46.289 13.5568C45.9151 13.1829 45.4079 12.9729 44.8792 12.9729H34.0188C33.501 11.7917 32.6503 10.7869 31.5707 10.0813C30.4911 9.37574 29.2293 9 27.9396 9C26.6499 9 25.3881 9.37574 24.3085 10.0813C23.2289 10.7869 22.3782 11.7917 21.8604 12.9729H10.9917C10.4633 12.9734 9.95667 13.1837 9.58322 13.5576C9.20977 13.9314 9 14.4382 9 14.9666V52.8416C9.00055 53.3697 9.21056 53.876 9.58395 54.2494C9.95735 54.6227 10.4636 54.8328 10.9917 54.8333H44.8792C45.4079 54.8333 45.9151 54.6233 46.289 54.2494C46.6629 53.8755 46.8729 53.3683 46.8729 52.8396V14.9666Z" stroke="#D9D9D9" stroke-width="1.5" stroke-linecap="round" stroke-linejoin="round"/>
</g>
<path d="M12.0026 52H34.3511C35.0617 52.0001 35.7638 51.8499 36.4091 51.5597C37.0544 51.2696 37.6274 50.8464 38.0888 50.3194L42.8116 44.9465C43.5756 44.0761 43.9949 42.9699 44 41.8261V16H12L12.0026 52Z" fill="#E3E3E3"/>
<path d="M15.8729 49.8843H33.9729C34.5484 49.8843 35.1171 49.7596 35.6397 49.5186C36.1623 49.2776 36.6264 48.9262 37 48.4884L40.825 44.0259C41.4437 43.303 41.7833 42.3843 41.7875 41.4343V19.9843H15.8708L15.8729 49.8843Z" fill="#E3E3E3"/>
<path d="M16 45.8979L41.8937 20H16V45.8979Z" fill="white"/>
<path d="M34.9375 24.9792H25.9667M20.9813 24.9792H21.9792M34.9375 32.9521H25.9667M20.9813 32.9521H21.9792M31.9458 40.925H25.9667M20.9813 40.925H21.9792M15.0021 48.9H33.1021C33.6776 48.9001 34.2462 48.7753 34.7688 48.5343C35.2914 48.2934 35.7556 47.9419 36.1292 47.5042L39.9542 43.0417C40.5729 42.3188 40.9125 41.4 40.9167 40.45V19H15L15.0021 48.9Z" stroke="#065627" stroke-width="2.66667" stroke-linecap="round" stroke-linejoin="round"/>
<path d="M34.9375 24.9792H25.9667M20.9813 24.9792H21.9792M34.9375 32.9521H25.9667M20.9813 32.9521H21.9792M31.9458 40.925H25.9667M20.9813 40.925H21.9792M15.0021 48.9H33.1021C33.6776 48.9001 34.2462 48.7753 34.7688 48.5343C35.2914 48.2934 35.7556 47.9419 36.1292 47.5042L39.9542 43.0417C40.5729 42.3188 40.9125 41.4 40.9167 40.45V19H15L15.0021 48.9Z" stroke="#300A65" stroke-width="2.66667" stroke-linecap="round" stroke-linejoin="round"/>
<defs>
<filter id="filter0_d_177_6012" x="4.25" y="8.25" width="47.3728" height="55.3333" filterUnits="userSpaceOnUse" color-interpolation-filters="sRGB">
<feFlood flood-opacity="0" result="BackgroundImageFix"/>
<feColorMatrix in="SourceAlpha" type="matrix" values="0 0 0 0 0 0 0 0 0 0 0 0 0 0 0 0 0 0 127 0" result="hardAlpha"/>
<feOffset dy="4"/>
<feGaussianBlur stdDeviation="2"/>
<feComposite in2="hardAlpha" operator="out"/>
<feColorMatrix type="matrix" values="0 0 0 0 0 0 0 0 0 0 0 0 0 0 0 0 0 0 0.25 0"/>
<feBlend mode="normal" in2="BackgroundImageFix" result="effect1_dropShadow_177_6012"/>
<feBlend mode="normal" in="SourceGraphic" in2="effect1_dropShadow_177_6012" result="shape"/>
</filter>
</defs>
</svg>
