<svg width="64" height="64" viewBox="0 0 64 64" fill="none" xmlns="http://www.w3.org/2000/svg">
<path fill-rule="evenodd" clip-rule="evenodd" d="M5.33337 32C5.33337 17.272 17.272 5.33337 32 5.33337C46.728 5.33337 58.6667 17.272 58.6667 32C58.6667 46.728 46.728 58.6667 32 58.6667C17.272 58.6667 5.33337 46.728 5.33337 32ZM32 10.6667C26.3421 10.6667 20.9159 12.9143 16.9151 16.9151C12.9143 20.9159 10.6667 26.3421 10.6667 32C10.6667 37.658 12.9143 43.0842 16.9151 47.085C20.9159 51.0858 26.3421 53.3334 32 53.3334C37.658 53.3334 43.0842 51.0858 47.085 47.085C51.0858 43.0842 53.3334 37.658 53.3334 32C53.3334 26.3421 51.0858 20.9159 47.085 16.9151C43.0842 12.9143 37.658 10.6667 32 10.6667Z" fill="#065627"/>
<path fill-rule="evenodd" clip-rule="evenodd" d="M34.6667 18.6667C34.6667 17.9594 34.3857 17.2811 33.8856 16.781C33.3855 16.281 32.7072 16 32 16C31.2928 16 30.6145 16.281 30.1144 16.781C29.6143 17.2811 29.3333 17.9594 29.3333 18.6667V29.3333H18.6667C17.9594 29.3333 17.2811 29.6143 16.781 30.1144C16.281 30.6145 16 31.2928 16 32C16 32.7072 16.281 33.3855 16.781 33.8856C17.2811 34.3857 17.9594 34.6667 18.6667 34.6667H29.3333V45.3333C29.3333 46.0406 29.6143 46.7189 30.1144 47.219C30.6145 47.7191 31.2928 48 32 48C32.7072 48 33.3855 47.7191 33.8856 47.219C34.3857 46.7189 34.6667 46.0406 34.6667 45.3333V34.6667H45.3333C46.0406 34.6667 46.7189 34.3857 47.219 33.8856C47.7191 33.3855 48 32.7072 48 32C48 31.2928 47.7191 30.6145 47.219 30.1144C46.7189 29.6143 46.0406 29.3333 45.3333 29.3333H34.6667V18.6667Z" fill="#065627"/>
</svg>
