<svg width="64" height="64" viewBox="0 0 64 64" fill="none" xmlns="http://www.w3.org/2000/svg">
<path d="M29 33H33V46M10 24H54M42 16V8M22 16V8M14 56H50C51.0609 56 52.0783 55.5786 52.8284 54.8284C53.5786 54.0783 54 53.0609 54 52V16C54 14.9391 53.5786 13.9217 52.8284 13.1716C52.0783 12.4214 51.0609 12 50 12H14C12.9391 12 11.9217 12.4214 11.1716 13.1716C10.4214 13.9217 10 14.9391 10 16V52C10 53.0609 10.4214 54.0783 11.1716 54.8284C11.9217 55.5786 12.9391 56 14 56Z" stroke="#065627" stroke-width="4" stroke-linecap="round" stroke-linejoin="round"/>
</svg>
