<svg width="64" height="64" viewBox="0 0 64 64" fill="none" xmlns="http://www.w3.org/2000/svg">
<path d="M32 35.7334L39.7334 43.4667C40.2223 43.9556 40.8445 44.2 41.6 44.2C42.3556 44.2 42.9778 43.9556 43.4667 43.4667C43.9556 42.9778 44.2 42.3556 44.2 41.6C44.2 40.8445 43.9556 40.2223 43.4667 39.7334L35.7334 32L43.4667 24.2667C43.9556 23.7778 44.2 23.1556 44.2 22.4C44.2 21.6445 43.9556 21.0223 43.4667 20.5334C42.9778 20.0445 42.3556 19.8 41.6 19.8C40.8445 19.8 40.2223 20.0445 39.7334 20.5334L32 28.2667L24.2667 20.5334C23.7778 20.0445 23.1556 19.8 22.4 19.8C21.6445 19.8 21.0223 20.0445 20.5334 20.5334C20.0445 21.0223 19.8 21.6445 19.8 22.4C19.8 23.1556 20.0445 23.7778 20.5334 24.2667L28.2667 32L20.5334 39.7334C20.0445 40.2223 19.8 40.8445 19.8 41.6C19.8 42.3556 20.0445 42.9778 20.5334 43.4667C21.0223 43.9556 21.6445 44.2 22.4 44.2C23.1556 44.2 23.7778 43.9556 24.2667 43.4667L32 35.7334ZM32 58.6667C28.3112 58.6667 24.8445 57.9663 21.6 56.5654C18.3556 55.1645 15.5334 53.2649 13.1334 50.8667C10.7334 48.4685 8.83382 45.6463 7.43471 42.4C6.0356 39.1538 5.33516 35.6872 5.33338 32C5.3316 28.3129 6.03204 24.8463 7.43471 21.6C8.83738 18.3538 10.7369 15.5316 13.1334 13.1334C15.5298 10.7352 18.352 8.8356 21.6 7.43471C24.848 6.03382 28.3147 5.33337 32 5.33337C35.6854 5.33337 39.152 6.03382 42.4 7.43471C45.648 8.8356 48.4703 10.7352 50.8667 13.1334C53.2632 15.5316 55.1636 18.3538 56.568 21.6C57.9725 24.8463 58.672 28.3129 58.6667 32C58.6614 35.6872 57.9609 39.1538 56.5654 42.4C55.1698 45.6463 53.2703 48.4685 50.8667 50.8667C48.4632 53.2649 45.6409 55.1654 42.4 56.568C39.1592 57.9707 35.6925 58.6703 32 58.6667Z" fill="#940439" fill-opacity="0.99"/>
</svg>
