<svg width="64" height="64" viewBox="0 0 64 64" fill="none" xmlns="http://www.w3.org/2000/svg">
<mask id="mask0_177_6076" style="mask-type:luminance" maskUnits="userSpaceOnUse" x="8" y="2" width="48" height="60">
<path d="M50.6666 5.33325H13.3333C12.626 5.33325 11.9478 5.6142 11.4477 6.1143C10.9476 6.6144 10.6666 7.29267 10.6666 7.99992V55.9999C10.6666 56.7072 10.9476 57.3854 11.4477 57.8855C11.9478 58.3856 12.626 58.6666 13.3333 58.6666H50.6666C51.3739 58.6666 52.0522 58.3856 52.5522 57.8855C53.0523 57.3854 53.3333 56.7072 53.3333 55.9999V7.99992C53.3333 7.29267 53.0523 6.6144 52.5522 6.1143C52.0522 5.6142 51.3739 5.33325 50.6666 5.33325Z" fill="white" stroke="white" stroke-width="5.33333" stroke-linecap="round" stroke-linejoin="round"/>
<path d="M22.6666 39.9999H41.3333M22.6666 47.9999H32M40 17.3333L29.3333 27.9999L24 22.6666" stroke="black" stroke-width="5.33333" stroke-linecap="round" stroke-linejoin="round"/>
</mask>
<g mask="url(#mask0_177_6076)">
<path d="M0 0H64V64H0V0Z" fill="#065627"/>
</g>
</svg>
