<svg width="64" height="64" viewBox="0 0 64 64" fill="none" xmlns="http://www.w3.org/2000/svg">
<path d="M20.5867 43.8827L25.2827 42.528L53.5574 13.9147C53.7804 13.6861 53.9046 13.379 53.9031 13.0597C53.9016 12.7404 53.7745 12.4344 53.5494 12.208L51.856 10.496C51.7466 10.3836 51.6159 10.294 51.4715 10.2327C51.3271 10.1713 51.1719 10.1393 51.0151 10.1386C50.8582 10.1378 50.7027 10.1684 50.5577 10.2283C50.4128 10.2883 50.2812 10.3766 50.1707 10.488L21.9707 39.0267L20.5867 43.8827ZM55.208 7.104L56.9014 8.81866C59.2374 11.184 59.2587 15 56.944 17.3413L27.808 46.8293L17.7707 49.72C17.4673 49.8053 17.15 49.83 16.837 49.7927C16.524 49.7553 16.2215 49.6567 15.9466 49.5024C15.6717 49.3482 15.4299 49.1413 15.235 48.8935C15.0402 48.6458 14.896 48.3621 14.8107 48.0587C14.6799 47.6187 14.6781 47.1504 14.8054 46.7093L17.7254 36.4693L46.784 7.05866C47.3366 6.50228 47.9944 6.0615 48.7191 5.762C49.4438 5.46251 50.2209 5.31031 51.005 5.31428C51.7891 5.31826 52.5646 5.47832 53.2862 5.78514C54.0078 6.09195 54.6612 6.54205 55.208 7.104ZM24.4907 10.1787C25.8134 10.1787 26.8854 11.264 26.8854 12.6027C26.8875 12.9191 26.8272 13.2329 26.708 13.526C26.5887 13.8191 26.4129 14.0859 26.1905 14.311C25.9681 14.5361 25.7035 14.7152 25.4118 14.838C25.1202 14.9608 24.8072 15.0249 24.4907 15.0267H14.912C12.2667 15.0267 10.1227 17.1973 10.1227 19.872V48.9547C10.1227 51.632 12.2667 53.8027 14.912 53.8027H43.648C46.2934 53.8027 48.44 51.632 48.44 48.9547V39.2613C48.44 37.9227 49.512 36.8373 50.8347 36.8373C52.1574 36.8373 53.2294 37.9227 53.2294 39.264V48.9547C53.2294 54.3093 48.9387 58.6507 43.648 58.6507H14.912C9.62137 58.6507 5.33337 54.3093 5.33337 48.9547V19.872C5.33337 14.52 9.62137 10.1787 14.912 10.1787H24.4907Z" fill="#065627"/>
</svg>
