<svg width="64" height="64" viewBox="0 0 64 64" fill="none" xmlns="http://www.w3.org/2000/svg">
<path d="M31.5466 24L40 32.4267V32C40 29.8783 39.1571 27.8434 37.6568 26.3431C36.1565 24.8429 34.1217 24 32 24H31.5466ZM20.08 26.1333L24.2133 30.2667C24.08 30.8267 24 31.3867 24 32C24 34.1217 24.8428 36.1566 26.3431 37.6569C27.8434 39.1571 29.8782 40 32 40C32.5866 40 33.1733 39.92 33.7333 39.7867L37.8666 43.92C36.08 44.8 34.1066 45.3333 32 45.3333C28.4637 45.3333 25.0724 43.9286 22.5719 41.4281C20.0714 38.9276 18.6666 35.5362 18.6666 32C18.6666 29.8933 19.2 27.92 20.08 26.1333ZM5.33329 11.3867L11.4133 17.4667L12.6133 18.6667C8.21329 22.1333 4.74663 26.6667 2.66663 32C7.27996 43.7067 18.6666 52 32 52C36.1333 52 40.08 51.2 43.68 49.76L44.8266 50.88L52.6133 58.6667L56 55.28L8.71996 8M32 18.6667C35.5362 18.6667 38.9276 20.0714 41.4281 22.5719C43.9285 25.0724 45.3333 28.4638 45.3333 32C45.3333 33.7067 44.9866 35.36 44.3733 36.8533L52.1866 44.6667C56.1866 41.3333 59.3866 36.96 61.3333 32C56.72 20.2933 45.3333 12 32 12C28.2666 12 24.6933 12.6667 21.3333 13.8667L27.12 19.6C28.64 19.0133 30.2666 18.6667 32 18.6667Z" fill="black"/>
</svg>
