<svg width="64" height="64" viewBox="0 0 64 64" fill="none" xmlns="http://www.w3.org/2000/svg">
<path d="M37.3333 21.3333V16C37.3333 14.5855 36.7714 13.2289 35.7712 12.2287C34.771 11.2285 33.4145 10.6666 32 10.6666H13.3333C11.9188 10.6666 10.5623 11.2285 9.5621 12.2287C8.5619 13.2289 8 14.5855 8 16V48C8 49.4144 8.5619 50.771 9.5621 51.7712C10.5623 52.7714 11.9188 53.3333 13.3333 53.3333H32C33.4145 53.3333 34.771 52.7714 35.7712 51.7712C36.7714 50.771 37.3333 49.4144 37.3333 48V42.6666" stroke="#940439" stroke-width="5.33333" stroke-linecap="round" stroke-linejoin="round"/>
<path d="M24 32H56M56 32L48 24M56 32L48 40" stroke="#940439" stroke-width="5.33333" stroke-linecap="round" stroke-linejoin="round"/>
</svg>
