<svg width="64" height="64" viewBox="0 0 64 64" fill="none" xmlns="http://www.w3.org/2000/svg">
<path d="M40 37.3333C32.88 37.3333 18.6666 40.88 18.6666 48V53.3333H61.3333V48C61.3333 40.88 47.12 37.3333 40 37.3333ZM16 26.6666V18.6666H10.6666V26.6666H2.66663V32H10.6666V40H16V32H24V26.6666M40 32C42.8289 32 45.542 30.8762 47.5424 28.8758C49.5428 26.8754 50.6666 24.1623 50.6666 21.3333C50.6666 18.5043 49.5428 15.7912 47.5424 13.7908C45.542 11.7904 42.8289 10.6666 40 10.6666C37.171 10.6666 34.4579 11.7904 32.4575 13.7908C30.4571 15.7912 29.3333 18.5043 29.3333 21.3333C29.3333 24.1623 30.4571 26.8754 32.4575 28.8758C34.4579 30.8762 37.171 32 40 32Z" fill="#065627"/>
</svg>
