<svg width="64" height="64" viewBox="0 0 64 64" fill="none" xmlns="http://www.w3.org/2000/svg">
<path d="M59.95 49.9645L49.8145 39.829L42.0185 36.6081C44.6144 32.9167 46.0051 28.5128 46 24C46 11.8691 36.1309 2 24 2C11.8691 2 2 11.8691 2 24C2 36.1309 11.8691 46 24 46C28.552 46.0052 32.9924 44.5905 36.7024 41.9529L39.9149 49.7279L50.05 59.8639C50.7 60.5139 51.4717 61.0296 52.321 61.3814C53.1702 61.7332 54.0805 61.9143 54.9998 61.9143C55.919 61.9144 56.8293 61.7333 57.6786 61.3816C58.5279 61.0298 59.2996 60.5142 59.9497 59.8642C60.5997 59.2142 61.1154 58.4425 61.4672 57.5932C61.819 56.7439 62.0001 55.8337 62.0001 54.9144C62.0002 53.9951 61.8191 53.0849 61.4674 52.2356C61.1156 51.3862 60.6 50.6145 59.95 49.9645ZM6 24C6 14.075 14.075 6 24 6C33.925 6 42 14.075 42 24C42 33.925 33.925 42 24 42C14.075 42 6 33.925 6 24ZM57.1214 57.0355C56.5583 57.5972 55.7954 57.9127 55 57.9127C54.2046 57.9127 53.4417 57.5972 52.8786 57.0355L43.3071 47.464L40.3204 40.2346L47.55 43.2214L57.1216 52.7929C57.6833 53.356 57.9987 54.1189 57.9986 54.9142C57.9986 55.7096 57.6831 56.4724 57.1214 57.0355Z" fill="#065627"/>
</svg>
