<svg width="64" height="64" viewBox="0 0 64 64" fill="none" xmlns="http://www.w3.org/2000/svg">
<path d="M27.92 22.5866C28.295 22.2121 28.8033 22.0017 29.3333 22.0017C29.8633 22.0017 30.3716 22.2121 30.7466 22.5866L38.7466 30.5866C39.1212 30.9616 39.3315 31.4699 39.3315 31.9999C39.3315 32.53 39.1212 33.0383 38.7466 33.4133L30.7466 41.4133C30.5635 41.6098 30.3427 41.7674 30.0974 41.8767C29.8521 41.986 29.5872 42.0448 29.3187 42.0495C29.0501 42.0543 28.7834 42.0049 28.5344 41.9043C28.2853 41.8037 28.0591 41.654 27.8692 41.4641C27.6793 41.2741 27.5296 41.0479 27.429 40.7989C27.3284 40.5498 27.279 40.2831 27.2837 40.0146C27.2885 39.746 27.3472 39.4812 27.4565 39.2358C27.5659 38.9905 27.7235 38.7697 27.92 38.5866L32.5066 33.9999H10.6666C10.1362 33.9999 9.62748 33.7892 9.25241 33.4142C8.87734 33.0391 8.66663 32.5304 8.66663 31.9999C8.66663 31.4695 8.87734 30.9608 9.25241 30.5857C9.62748 30.2107 10.1362 29.9999 10.6666 29.9999H32.5066L27.92 25.4133C27.5454 25.0383 27.3351 24.53 27.3351 23.9999C27.3351 23.4699 27.5454 22.9616 27.92 22.5866Z" fill="#065627"/>
<path d="M27.7147 9H34.2853C36.4533 9 38.2027 9 39.6187 9.11794C41.0747 9.24137 42.3547 9.50194 43.5387 10.1218C45.4215 11.1075 46.9525 12.6813 47.912 14.6174C48.5147 15.8352 48.7653 17.1518 48.8853 18.6494C49 20.1058 49 21.9051 49 24.1351V41.8649C49 44.0949 49 45.8942 48.8853 47.3506C48.7653 48.8482 48.512 50.1648 47.9093 51.3826C46.951 53.3193 45.421 54.894 43.5387 55.8809C42.3547 56.5008 41.0747 56.7586 39.6187 56.8821C38.2027 57 36.4533 57 34.2853 57H27.7147C25.5467 57 23.7973 57 22.3813 56.8821C20.9253 56.7586 19.6453 56.4981 18.4613 55.8782C16.5785 54.8925 15.0475 53.3187 14.088 51.3826C13.4853 50.1648 13.2347 48.8482 13.1147 47.3506C13 45.8942 13 44.0949 13 41.8649V41.2286C13 40.683 13.2107 40.1597 13.5858 39.774C13.9609 39.3882 14.4696 39.1714 15 39.1714C15.5304 39.1714 16.0391 39.3882 16.4142 39.774C16.7893 40.1597 17 40.683 17 41.2286V41.7771C17 44.1141 17 45.7461 17.1013 47.016C17.2 48.2585 17.3867 48.9744 17.6533 49.5175C18.2293 50.6777 19.1467 51.6213 20.2773 52.2137C20.8027 52.488 21.4987 52.68 22.7093 52.7815C23.9413 52.883 25.5253 52.8857 27.8 52.8857H34.2C36.4747 52.8857 38.0587 52.8857 39.2933 52.7815C40.5013 52.6773 41.1973 52.488 41.7253 52.2137C42.8539 51.6221 43.7715 50.6783 44.3467 49.5175C44.6133 48.9744 44.8 48.2585 44.8987 47.0133C44.9973 45.7461 45 44.1141 45 41.7771V24.2229C45 21.8859 45 20.2539 44.8987 18.984C44.7973 17.7415 44.6133 17.0256 44.3467 16.4853C43.7719 15.3234 42.8543 14.3786 41.7253 13.7863C41.1973 13.512 40.5013 13.32 39.2907 13.2185C38.0587 13.117 36.472 13.1143 34.2 13.1143H27.8C25.5253 13.1143 23.9413 13.1143 22.7067 13.2185C21.4987 13.32 20.8027 13.512 20.2773 13.7863C19.1474 14.3781 18.2287 15.323 17.6533 16.4853C17.3867 17.0256 17.2 17.7415 17.1013 18.9867C17.0027 20.2539 17 21.8859 17 24.2229V24.7714C17 25.317 16.7893 25.8403 16.4142 26.226C16.0391 26.6118 15.5304 26.8286 15 26.8286C14.4696 26.8286 13.9609 26.6118 13.5858 26.226C13.2107 25.8403 13 25.317 13 24.7714V24.1351C13 21.9051 13 20.1058 13.1147 18.6494C13.2347 17.1518 13.488 15.8352 14.0907 14.6174C15.049 12.6807 16.579 11.106 18.4613 10.1191C19.6453 9.4992 20.9253 9.24137 22.3813 9.11794C23.7973 9 25.5467 9 27.7147 9Z" fill="#065627"/>
</svg>
