<svg width="64" height="64" viewBox="0 0 64 64" fill="none" xmlns="http://www.w3.org/2000/svg">
<path fill-rule="evenodd" clip-rule="evenodd" d="M33.5841 62.0214L33.5521 62.0267L33.3628 62.12L33.3094 62.1307L33.2721 62.12L33.0828 62.024C33.0543 62.0169 33.033 62.0223 33.0188 62.04L33.0081 62.0667L32.9628 63.208L32.9761 63.2614L33.0028 63.296L33.2801 63.4934L33.3201 63.504L33.3521 63.4934L33.6294 63.296L33.6614 63.2534L33.6721 63.208L33.6268 62.0694C33.6196 62.0409 33.6054 62.0249 33.5841 62.0214ZM34.2881 61.72L34.2508 61.7254L33.7601 61.9734L33.7334 62L33.7254 62.0294L33.7734 63.176L33.7868 63.208L33.8081 63.2294L34.3441 63.4747C34.3779 63.4836 34.4036 63.4765 34.4214 63.4534L34.4321 63.416L34.3414 61.7787C34.3325 61.7449 34.3148 61.7254 34.2881 61.72ZM32.3814 61.7254C32.3697 61.7182 32.3556 61.7159 32.3422 61.7189C32.3288 61.7219 32.3171 61.7299 32.3094 61.7414L32.2934 61.7787L32.2028 63.416C32.2045 63.448 32.2196 63.4694 32.2481 63.48L32.2881 63.4747L32.8241 63.2267L32.8508 63.2054L32.8588 63.176L32.9068 62.0294L32.8988 61.9974L32.8721 61.9707L32.3814 61.7254Z" fill="#065627"/>
<path fill-rule="evenodd" clip-rule="evenodd" d="M32 5.33337C17.272 5.33337 5.33337 17.272 5.33337 32C5.33337 46.728 17.272 58.6667 32 58.6667C46.728 58.6667 58.6667 46.728 58.6667 32C58.6667 17.272 46.728 5.33337 32 5.33337ZM22.6667 25.3334C22.6667 24.1077 22.9081 22.894 23.3772 21.7617C23.8462 20.6293 24.5337 19.6004 25.4004 18.7337C26.2671 17.867 27.296 17.1795 28.4283 16.7105C29.5607 16.2415 30.7744 16 32 16C33.2257 16 34.4394 16.2415 35.5718 16.7105C36.7041 17.1795 37.733 17.867 38.5997 18.7337C39.4664 19.6004 40.1539 20.6293 40.6229 21.7617C41.092 22.894 41.3334 24.1077 41.3334 25.3334C41.3334 27.8087 40.35 30.1827 38.5997 31.933C36.8494 33.6834 34.4754 34.6667 32 34.6667C29.5247 34.6667 27.1507 33.6834 25.4004 31.933C23.65 30.1827 22.6667 27.8087 22.6667 25.3334ZM48.688 45.2907C46.6912 47.801 44.1534 49.828 41.2639 51.2206C38.3743 52.6132 35.2076 53.3354 32 53.3334C28.7924 53.3354 25.6258 52.6132 22.7362 51.2206C19.8467 49.828 17.3089 47.801 15.312 45.2907C19.6347 42.1894 25.5334 40 32 40C38.4667 40 44.3654 42.1894 48.688 45.2907Z" fill="#065627"/>
</svg>
